<svg width="20" height="20" viewBox="0 0 20 20" fill="none" xmlns="http://www.w3.org/2000/svg">
<path fill-rule="evenodd" clip-rule="evenodd" d="M5.18572 15.0003H14.8144C16.338 15.0003 17.2077 13.4677 16.2936 12.3938C15.8888 11.9183 15.6394 11.3544 15.5723 10.763L15.4356 9.55843C15.2927 9.57496 15.1473 9.58346 15 9.58346C12.9289 9.58346 11.25 7.90452 11.25 5.83346C11.25 5.0244 11.5062 4.27518 11.9419 3.66252L11.8917 3.64504V3.55861C11.8917 2.5139 11.0448 1.66699 10 1.66699C8.95533 1.66699 8.10842 2.5139 8.10842 3.55861V3.64504C6.32309 4.25632 5.00137 5.70919 4.80043 7.47965L4.42777 10.763C4.36065 11.3544 4.11124 11.9183 3.70653 12.3938C2.79234 13.4677 3.66207 15.0003 5.18572 15.0003ZM17.5 5.83346C17.5 7.21417 16.3808 8.33346 15 8.33346C13.6193 8.33346 12.5 7.21417 12.5 5.83346C12.5 4.45274 13.6193 3.33346 15 3.33346C16.3808 3.33346 17.5 4.45274 17.5 5.83346ZM10 18.3337C11.1305 18.3337 12.0956 17.6663 12.4768 16.7266C12.4927 16.6874 12.5 16.6453 12.5 16.603C12.5 16.4081 12.342 16.2501 12.1471 16.2501H7.85295C7.65804 16.2501 7.50004 16.4081 7.50004 16.603C7.50004 16.6453 7.5074 16.6874 7.5233 16.7266C7.90444 17.6663 8.86961 18.3337 10 18.3337Z" fill="white"/>
</svg>
