<svg width="18" height="18" viewBox="0 0 18 18" fill="none" xmlns="http://www.w3.org/2000/svg">
<path d="M17.2499 15.628L17.061 15.4613C16.5253 14.9837 16.0563 14.4362 15.6666 13.8336C15.2407 13.0018 14.9857 12.0932 14.9166 11.1613V8.41688C14.9202 6.95334 14.3893 5.53881 13.4236 4.43909C12.4579 3.33937 11.1239 2.63014 9.67211 2.44466V1.72799C9.67211 1.53129 9.59397 1.34265 9.45488 1.20356C9.31579 1.06447 9.12715 0.986328 8.93045 0.986328C8.73374 0.986328 8.5451 1.06447 8.40601 1.20356C8.26692 1.34265 8.18878 1.53129 8.18878 1.72799V2.45577C6.75003 2.65462 5.4321 3.36814 4.47907 4.46417C3.52605 5.56019 3.00252 6.96446 3.00545 8.41688V11.1613C2.93631 12.0932 2.6813 13.0018 2.25545 13.8336C1.8726 14.4349 1.41111 14.9823 0.883225 15.4613L0.694336 15.628V17.1947H17.2499V15.628Z" fill="#FFDBC3"/>
</svg>
