<svg width="13" height="13" viewBox="0 0 13 13" fill="none" xmlns="http://www.w3.org/2000/svg">
<path fill-rule="evenodd" clip-rule="evenodd" d="M1.59648 0.260661C1.42135 0.0915142 1.18679 -0.00208057 0.943324 3.51024e-05C0.699855 0.00215078 0.466958 0.0998076 0.294793 0.271972C0.122629 0.444137 0.0249717 0.677034 0.022856 0.920503C0.0207403 1.16397 0.114335 1.39853 0.283482 1.57366L5.19841 6.48859L0.283482 11.4035C0.194794 11.4892 0.124053 11.5916 0.0753877 11.7049C0.0267222 11.8182 0.00110646 11.9401 3.50598e-05 12.0634C-0.00103634 12.1867 0.0224581 12.3089 0.0691475 12.423C0.115837 12.5372 0.184786 12.6408 0.271972 12.728C0.359158 12.8152 0.462835 12.8842 0.576953 12.9309C0.691071 12.9775 0.813345 13.001 0.93664 13C1.05994 12.9989 1.18178 12.9733 1.29507 12.9246C1.40836 12.8759 1.51082 12.8052 1.59648 12.7165L6.51141 7.80159L11.4263 12.7165C11.6015 12.8857 11.836 12.9793 12.0795 12.9771C12.323 12.975 12.5559 12.8774 12.728 12.7052C12.9002 12.533 12.9978 12.3001 13 12.0567C13.0021 11.8132 12.9085 11.5786 12.7393 11.4035L7.82441 6.48859L12.7393 1.57366C12.9085 1.39853 13.0021 1.16397 13 0.920503C12.9978 0.677034 12.9002 0.444137 12.728 0.271972C12.5559 0.0998076 12.323 0.00215078 12.0795 3.51024e-05C11.836 -0.00208057 11.6015 0.0915142 11.4263 0.260661L6.51141 5.17559L1.59648 0.260661Z" fill="#5C5C5C"/>
</svg>
