<svg width="30" height="30" viewBox="0 0 30 30" fill="none" xmlns="http://www.w3.org/2000/svg">
<rect width="30" height="30" rx="15" fill="#F69554"/>
<path d="M20.6834 19.124C20.8731 19.3292 20.976 19.5999 20.9706 19.8793C20.9651 20.1587 20.8518 20.4252 20.6542 20.6229C20.4567 20.8206 20.1903 20.9341 19.9109 20.9397C19.6315 20.9454 19.3607 20.8426 19.1554 20.653L15.0303 16.528L10.9052 20.653C10.8064 20.76 10.6869 20.8459 10.554 20.9055C10.4212 20.9652 10.2776 20.9974 10.132 21.0002C9.98637 21.0031 9.84168 20.9765 9.70659 20.922C9.5715 20.8675 9.4488 20.7864 9.34585 20.6834C9.2429 20.5803 9.16181 20.4576 9.10745 20.3224C9.05309 20.1873 9.02658 20.0426 9.02952 19.897C9.03245 19.7514 9.06476 19.6078 9.12451 19.475C9.18426 19.3422 9.27022 19.2228 9.37724 19.124L13.5023 14.9989L9.37724 10.876C9.27022 10.7772 9.18426 10.6578 9.12451 10.5249C9.06476 10.3921 9.03245 10.2486 9.02952 10.103C9.02658 9.95733 9.05309 9.81262 9.10745 9.6775C9.16181 9.54237 9.2429 9.41961 9.34585 9.31659C9.4488 9.21356 9.5715 9.13239 9.70659 9.07794C9.84168 9.02349 9.98637 8.99689 10.132 8.99972C10.2776 9.00255 10.4212 9.03476 10.554 9.09442C10.6869 9.15408 10.8064 9.23996 10.9052 9.34691L15.0303 13.4709L19.1554 9.34586C19.3607 9.15628 19.6315 9.05354 19.9109 9.05917C20.1903 9.06479 20.4567 9.17834 20.6542 9.37602C20.8518 9.57371 20.9651 9.84018 20.9706 10.1196C20.976 10.399 20.8731 10.6697 20.6834 10.8749L16.5583 14.9989L20.6834 19.124Z" fill="white"/>
</svg>
