<svg width="178" height="38" viewBox="0 0 178 38" fill="none" xmlns="http://www.w3.org/2000/svg">
<path d="M149.556 22.5556H158.889C159.301 22.5556 159.697 22.3917 159.989 22.0999C160.281 21.8082 160.444 21.4126 160.444 21V8.55556C160.444 8.143 160.281 7.74733 159.989 7.45561C159.697 7.16389 159.301 7 158.889 7H149.556C149.143 7 148.747 7.16389 148.456 7.45561C148.164 7.74733 148 8.143 148 8.55556V21C148 21.4126 148.164 21.8082 148.456 22.0999C148.747 22.3917 149.143 22.5556 149.556 22.5556ZM148 33.4444C148 33.857 148.164 34.2527 148.456 34.5444C148.747 34.8361 149.143 35 149.556 35H158.889C159.301 35 159.697 34.8361 159.989 34.5444C160.281 34.2527 160.444 33.857 160.444 33.4444V27.2222C160.444 26.8097 160.281 26.414 159.989 26.1223C159.697 25.8306 159.301 25.6667 158.889 25.6667H149.556C149.143 25.6667 148.747 25.8306 148.456 26.1223C148.164 26.414 148 26.8097 148 27.2222V33.4444ZM163.556 33.4444C163.556 33.857 163.719 34.2527 164.011 34.5444C164.303 34.8361 164.699 35 165.111 35H174.444C174.857 35 175.253 34.8361 175.544 34.5444C175.836 34.2527 176 33.857 176 33.4444V22.5556C176 22.143 175.836 21.7473 175.544 21.4556C175.253 21.1639 174.857 21 174.444 21H165.111C164.699 21 164.303 21.1639 164.011 21.4556C163.719 21.7473 163.556 22.143 163.556 22.5556V33.4444ZM165.111 17.8889H174.444C174.857 17.8889 175.253 17.725 175.544 17.4333C175.836 17.1416 176 16.7459 176 16.3333V8.55556C176 8.143 175.836 7.74733 175.544 7.45561C175.253 7.16389 174.857 7 174.444 7H165.111C164.699 7 164.303 7.16389 164.011 7.45561C163.719 7.74733 163.556 8.143 163.556 8.55556V16.3333C163.556 16.7459 163.719 17.1416 164.011 17.4333C164.303 17.725 164.699 17.8889 165.111 17.8889Z" fill="#C3E4FC"/>
<path d="M147.556 20.5556H156.889C157.301 20.5556 157.697 20.3917 157.989 20.0999C158.281 19.8082 158.444 19.4126 158.444 19V6.55556C158.444 6.143 158.281 5.74733 157.989 5.45561C157.697 5.16389 157.301 5 156.889 5H147.556C147.143 5 146.747 5.16389 146.456 5.45561C146.164 5.74733 146 6.143 146 6.55556V19C146 19.4126 146.164 19.8082 146.456 20.0999C146.747 20.3917 147.143 20.5556 147.556 20.5556ZM146 31.4444C146 31.857 146.164 32.2527 146.456 32.5444C146.747 32.8361 147.143 33 147.556 33H156.889C157.301 33 157.697 32.8361 157.989 32.5444C158.281 32.2527 158.444 31.857 158.444 31.4444V25.2222C158.444 24.8097 158.281 24.414 157.989 24.1223C157.697 23.8306 157.301 23.6667 156.889 23.6667H147.556C147.143 23.6667 146.747 23.8306 146.456 24.1223C146.164 24.414 146 24.8097 146 25.2222V31.4444ZM161.556 31.4444C161.556 31.857 161.719 32.2527 162.011 32.5444C162.303 32.8361 162.699 33 163.111 33H172.444C172.857 33 173.253 32.8361 173.544 32.5444C173.836 32.2527 174 31.857 174 31.4444V20.5556C174 20.143 173.836 19.7473 173.544 19.4556C173.253 19.1639 172.857 19 172.444 19H163.111C162.699 19 162.303 19.1639 162.011 19.4556C161.719 19.7473 161.556 20.143 161.556 20.5556V31.4444ZM163.111 15.8889H172.444C172.857 15.8889 173.253 15.725 173.544 15.4333C173.836 15.1416 174 14.7459 174 14.3333V6.55556C174 6.143 173.836 5.74733 173.544 5.45561C173.253 5.16389 172.857 5 172.444 5H163.111C162.699 5 162.303 5.16389 162.011 5.45561C161.719 5.74733 161.556 6.143 161.556 6.55556V14.3333C161.556 14.7459 161.719 15.1416 162.011 15.4333C162.303 15.725 162.699 15.8889 163.111 15.8889Z" fill="#4F2396"/>
<path d="M15.3281 28V25.1H17.9781V28H15.3281ZM2.05313 36.3C1.90313 35.4 1.76146 34.525 1.62813 33.675C1.51146 32.825 1.45313 32.075 1.45313 31.425C1.45313 30.125 1.70313 29 2.20313 28.05C2.70313 27.1167 3.41146 26.3917 4.32813 25.875C5.24479 25.3583 6.32813 25.1 7.57813 25.1C7.82813 25.1 8.13646 25.1 8.50313 25.1C8.88646 25.1 9.32813 25.1 9.82813 25.1C10.3281 25.1 10.8865 25.1 11.5031 25.1C12.1198 25.1 12.7948 25.1 13.5281 25.1L12.0031 26.55V21.825C12.0031 20.9583 11.9031 20.275 11.7031 19.775C11.5198 19.2583 11.1781 18.8917 10.6781 18.675C10.1948 18.4583 9.48646 18.35 8.55313 18.35C7.91979 18.35 7.26979 18.4 6.60313 18.5C5.95313 18.5833 5.43646 18.7 5.05313 18.85L7.15313 16.9C7.03646 17.3 6.92813 17.8 6.82813 18.4C6.74479 19 6.67813 19.625 6.62813 20.275C6.57813 20.9083 6.55313 21.5083 6.55313 22.075C6.55313 22.6917 6.57813 23.3167 6.62813 23.95C6.67813 24.5667 6.73646 25.1167 6.80313 25.6C6.88646 26.0833 6.95313 26.4167 7.00313 26.6L3.82813 27.475C3.74479 27.2417 3.65313 26.8583 3.55313 26.325C3.46979 25.7917 3.38646 25.1667 3.30313 24.45C3.23646 23.7167 3.20313 22.9417 3.20313 22.125C3.20313 21.3083 3.23646 20.5167 3.30313 19.75C3.38646 18.9667 3.48646 18.2667 3.60313 17.65C3.71979 17.0167 3.82813 16.5083 3.92813 16.125C4.36146 15.9583 5.00313 15.8083 5.85313 15.675C6.70313 15.525 7.61979 15.45 8.60313 15.45C9.68646 15.45 10.6115 15.5583 11.3781 15.775C12.1615 15.975 12.8031 16.2667 13.3031 16.65C13.8198 17.0333 14.2281 17.4917 14.5281 18.025C14.8281 18.5417 15.0365 19.125 15.1531 19.775C15.2698 20.425 15.3281 21.1167 15.3281 21.85V28C14.5948 28 13.8281 28 13.0281 28C12.2448 28 11.4781 28 10.7281 28C9.99479 28 9.34479 28 8.77813 28C8.22813 28 7.82813 28 7.57813 28C7.31146 28 7.01979 28.0333 6.70312 28.1C6.38646 28.1833 6.07813 28.3333 5.77813 28.55C5.49479 28.7833 5.26146 29.125 5.07813 29.575C4.89479 30.0417 4.80313 30.6583 4.80313 31.425C4.80313 32.025 4.85313 32.725 4.95313 33.525C5.06979 34.325 5.20313 35.25 5.35313 36.3H2.05313ZM17.9781 28V25.1C18.0615 25.1 18.1365 25.1333 18.2031 25.2C18.2698 25.2667 18.3198 25.3667 18.3531 25.5C18.3865 25.6333 18.4115 25.7917 18.4281 25.975C18.4615 26.1417 18.4781 26.3333 18.4781 26.55C18.4781 26.7667 18.4615 26.9667 18.4281 27.15C18.4115 27.3333 18.3865 27.4917 18.3531 27.625C18.3198 27.7417 18.2698 27.8333 18.2031 27.9C18.1365 27.9667 18.0615 28 17.9781 28ZM32.7824 28V25.1H35.4074V28H32.7824ZM17.9824 28C17.8824 28 17.8074 27.9667 17.7574 27.9C17.6908 27.8333 17.6408 27.7417 17.6074 27.625C17.5574 27.4917 17.5241 27.3333 17.5074 27.15C17.4908 26.9667 17.4824 26.7667 17.4824 26.55C17.4824 26.25 17.4991 26 17.5324 25.8C17.5658 25.5833 17.6241 25.4167 17.7074 25.3C17.7741 25.1667 17.8658 25.1 17.9824 25.1V28ZM17.9824 28V25.1H30.5324L29.4324 26V22.6C29.4324 21.7333 29.3408 21.0417 29.1574 20.525C28.9741 20.0083 28.6908 19.6333 28.3074 19.4C27.9408 19.1667 27.4741 19.05 26.9074 19.05H21.4324L19.3574 16.05L20.6324 13.65C20.7824 13.3667 20.9491 13.0583 21.1324 12.725C21.3158 12.3917 21.5574 11.9917 21.8574 11.525C22.1574 11.0583 22.5408 10.475 23.0074 9.775L25.8074 11.35C25.3741 12 25.0241 12.5417 24.7574 12.975C24.4908 13.3917 24.2658 13.7583 24.0824 14.075C23.8991 14.3917 23.7324 14.7083 23.5824 15.025L22.5824 16.9L22.0824 16.15H26.9074C27.9741 16.15 28.8824 16.325 29.6324 16.675C30.3824 17.025 30.9824 17.5083 31.4324 18.125C31.8991 18.7417 32.2408 19.4333 32.4574 20.2C32.6741 20.9667 32.7824 21.7667 32.7824 22.6V28H17.9824ZM35.4074 28V25.1C35.5074 25.1 35.5908 25.1333 35.6574 25.2C35.7241 25.2667 35.7741 25.3667 35.8074 25.5C35.8408 25.6333 35.8658 25.7917 35.8824 25.975C35.8991 26.1417 35.9074 26.3333 35.9074 26.55C35.9074 26.7667 35.8991 26.9667 35.8824 27.15C35.8658 27.3333 35.8408 27.4917 35.8074 27.625C35.7741 27.7417 35.7241 27.8333 35.6574 27.9C35.5908 27.9667 35.5074 28 35.4074 28ZM48.3641 28V25.1H51.0141V28H48.3641ZM35.4141 28C35.3141 28 35.2391 27.9667 35.1891 27.9C35.1224 27.8333 35.0724 27.7417 35.0391 27.625C34.9891 27.4917 34.9557 27.3333 34.9391 27.15C34.9224 26.9667 34.9141 26.7667 34.9141 26.55C34.9141 26.25 34.9307 26 34.9641 25.8C34.9974 25.5833 35.0557 25.4167 35.1391 25.3C35.2057 25.1667 35.2974 25.1 35.4141 25.1V28ZM35.4141 28V25.1H46.1641L45.0391 26.025V21.4C45.0391 20.4 44.7224 19.6417 44.0891 19.125C43.4724 18.6083 42.4891 18.35 41.1391 18.35C40.7557 18.35 40.2307 18.3833 39.5641 18.45C38.8974 18.5 38.1724 18.5833 37.3891 18.7L37.0641 16.05C37.7807 15.8833 38.5057 15.7417 39.2391 15.625C39.9891 15.5083 40.7224 15.45 41.4391 15.45C42.8057 15.45 44.0057 15.6917 45.0391 16.175C46.0724 16.6417 46.8807 17.3167 47.4641 18.2C48.0641 19.0833 48.3641 20.15 48.3641 21.4V28H35.4141ZM51.0141 28V25.1C51.0974 25.1 51.1724 25.1333 51.2391 25.2C51.3057 25.2667 51.3557 25.3667 51.3891 25.5C51.4224 25.6333 51.4474 25.7917 51.4641 25.975C51.4974 26.1417 51.5141 26.3333 51.5141 26.55C51.5141 26.7667 51.4974 26.9667 51.4641 27.15C51.4474 27.3333 51.4224 27.4917 51.3891 27.625C51.3557 27.7417 51.3057 27.8333 51.2391 27.9C51.1724 27.9667 51.0974 28 51.0141 28ZM58.3146 28V25.1H61.4396V28H58.3146ZM61.4396 28V25.1C61.523 25.1 61.598 25.1333 61.6646 25.2C61.7313 25.2667 61.7813 25.3667 61.8146 25.5C61.848 25.6333 61.873 25.7917 61.8896 25.975C61.923 26.1417 61.9396 26.3333 61.9396 26.55C61.9396 26.7667 61.923 26.9667 61.8896 27.15C61.873 27.3333 61.848 27.4917 61.8146 27.625C61.7813 27.7417 61.7313 27.8333 61.6646 27.9C61.6146 27.9667 61.5396 28 61.4396 28ZM51.0146 28C50.9146 28 50.8396 27.9667 50.7896 27.9C50.723 27.8333 50.673 27.7417 50.6396 27.625C50.5896 27.4917 50.5563 27.3333 50.5396 27.15C50.523 26.9667 50.5146 26.7667 50.5146 26.55C50.5146 26.25 50.5313 26 50.5646 25.8C50.598 25.5833 50.6563 25.4167 50.7396 25.3C50.8063 25.1667 50.898 25.1 51.0146 25.1V28ZM51.0146 28V25.1H56.9396L54.9896 26.725V15.45H58.3146V28H51.0146ZM52.7896 13.15V10.3H56.0146V13.15H52.7896ZM57.3396 13.15V10.3H60.5646V13.15H57.3396ZM64.2645 28V10.325H67.6145V28H64.2645ZM61.4395 28V25.1H64.2645V28H61.4395ZM61.4395 28C61.3395 28 61.2645 27.9667 61.2145 27.9C61.1478 27.8333 61.0978 27.7417 61.0645 27.625C61.0145 27.4917 60.9811 27.3333 60.9645 27.15C60.9478 26.9667 60.9395 26.7667 60.9395 26.55C60.9395 26.25 60.9561 26 60.9895 25.8C61.0228 25.5833 61.0811 25.4167 61.1645 25.3C61.2311 25.1667 61.3228 25.1 61.4395 25.1V28ZM71.624 28V10.325H74.949V28H71.624ZM89.8553 28C88.4386 28 87.2719 27.775 86.3553 27.325C85.4386 26.875 84.7553 26.1917 84.3053 25.275C83.8719 24.3583 83.6553 23.2 83.6553 21.8C83.6553 20.4 83.8719 19.2333 84.3053 18.3C84.7553 17.35 85.4386 16.6417 86.3553 16.175C87.2719 15.6917 88.4386 15.45 89.8553 15.45H95.5053V26.425H92.1553V17.625L92.9803 18.35H89.8553C89.1719 18.35 88.6219 18.4333 88.2053 18.6C87.7886 18.75 87.4803 19.075 87.2803 19.575C87.0969 20.0583 87.0053 20.8 87.0053 21.8C87.0053 22.75 87.0886 23.4667 87.2553 23.95C87.4386 24.4167 87.7386 24.725 88.1553 24.875C88.5719 25.025 89.1386 25.1 89.8553 25.1H98.1303V28H89.8553ZM98.1303 28V25.1C98.2303 25.1 98.3053 25.1333 98.3553 25.2C98.4219 25.2667 98.4719 25.3667 98.5053 25.5C98.5553 25.6333 98.5886 25.7917 98.6053 25.975C98.6219 26.1417 98.6303 26.3333 98.6303 26.55C98.6303 26.7667 98.6219 26.9667 98.6053 27.15C98.5886 27.3333 98.5553 27.4917 98.5053 27.625C98.4719 27.7417 98.4219 27.8333 98.3553 27.9C98.3053 27.9667 98.2303 28 98.1303 28ZM86.1303 13.15V10.3H89.3553V13.15H86.1303ZM90.6803 13.15V10.3H93.9053V13.15H90.6803ZM98.1338 28V25.1H108.884L107.759 26.025V21.4C107.759 20.4 107.442 19.6417 106.809 19.125C106.192 18.6083 105.209 18.35 103.859 18.35C103.475 18.35 102.95 18.3833 102.284 18.45C101.617 18.5 100.892 18.5833 100.109 18.7L99.7838 16.05C100.5 15.8833 101.225 15.7417 101.959 15.625C102.709 15.5083 103.442 15.45 104.159 15.45C105.525 15.45 106.725 15.6917 107.759 16.175C108.792 16.6417 109.6 17.3167 110.184 18.2C110.784 19.0833 111.084 20.15 111.084 21.4V28H98.1338ZM98.1338 28C98.0338 28 97.9588 27.9667 97.9088 27.9C97.8421 27.8333 97.7921 27.7417 97.7588 27.625C97.7088 27.4917 97.6755 27.3333 97.6588 27.15C97.6421 26.9667 97.6338 26.7667 97.6338 26.55C97.6338 26.25 97.6505 26 97.6838 25.8C97.7171 25.5833 97.7755 25.4167 97.8588 25.3C97.9255 25.1667 98.0171 25.1 98.1338 25.1V28ZM125.437 28V25.1H128.062V28H125.437ZM118.687 34.2C118.07 34.2 117.42 34.15 116.737 34.05C116.07 33.9667 115.354 33.85 114.587 33.7L115.087 31.025C115.92 31.125 116.629 31.2 117.212 31.25C117.795 31.3 118.287 31.325 118.687 31.325C119.887 31.325 120.754 31.1083 121.287 30.675C121.82 30.2417 122.087 29.5917 122.087 28.725V17.75L122.912 18.35H119.787C119.104 18.35 118.554 18.4333 118.137 18.6C117.72 18.75 117.412 19.075 117.212 19.575C117.029 20.0583 116.937 20.8 116.937 21.8C116.937 22.75 117.02 23.4667 117.187 23.95C117.37 24.4167 117.67 24.725 118.087 24.875C118.504 25.025 119.07 25.1 119.787 25.1H122.087V28H119.787C118.37 28 117.204 27.775 116.287 27.325C115.37 26.875 114.687 26.1917 114.237 25.275C113.804 24.3583 113.587 23.2 113.587 21.8C113.587 20.4 113.804 19.2333 114.237 18.3C114.687 17.35 115.37 16.6417 116.287 16.175C117.204 15.6917 118.37 15.45 119.787 15.45H125.437V28.725C125.437 29.8583 125.154 30.8333 124.587 31.65C124.037 32.4833 123.254 33.1167 122.237 33.55C121.237 33.9833 120.054 34.2 118.687 34.2ZM128.062 28V25.1C128.162 25.1 128.237 25.1333 128.287 25.2C128.354 25.2667 128.404 25.3667 128.437 25.5C128.487 25.6333 128.52 25.7917 128.537 25.975C128.554 26.1417 128.562 26.3333 128.562 26.55C128.562 26.7667 128.554 26.9667 128.537 27.15C128.52 27.3333 128.487 27.4917 128.437 27.625C128.404 27.7417 128.354 27.8333 128.287 27.9C128.237 27.9667 128.162 28 128.062 28ZM130.89 28V10.325H134.24V28H130.89ZM128.065 28V25.1H130.89V28H128.065ZM128.065 28C127.965 28 127.89 27.9667 127.84 27.9C127.774 27.8333 127.724 27.7417 127.69 27.625C127.64 27.4917 127.607 27.3333 127.59 27.15C127.574 26.9667 127.565 26.7667 127.565 26.55C127.565 26.25 127.582 26 127.615 25.8C127.649 25.5833 127.707 25.4167 127.79 25.3C127.857 25.1667 127.949 25.1 128.065 25.1V28Z" fill="#4F2396"/>
</svg>
