<svg width="111" height="110" viewBox="0 0 111 110" fill="none" xmlns="http://www.w3.org/2000/svg">
<g clip-path="url(#clip0_256_2018)">
<path d="M92.1667 22.916C93.3822 22.916 94.548 23.3989 95.4076 24.2584C96.2671 25.118 96.75 26.2838 96.75 27.4993C96.75 28.7149 96.2671 29.8807 95.4076 30.7403C94.548 31.5998 93.3822 32.0827 92.1667 32.0827H87.5833L87.5696 32.4081L83.2933 92.3168C83.1287 94.6295 82.0939 96.7939 80.3972 98.3741C78.7005 99.9542 76.4681 100.833 74.1496 100.833H36.8458C34.5273 100.833 32.2949 99.9542 30.5982 98.3741C28.9016 96.7939 27.8667 94.6295 27.7021 92.3168L23.4258 32.4127L23.4167 32.0827H18.8333C17.6178 32.0827 16.452 31.5998 15.5924 30.7403C14.7329 29.8807 14.25 28.7149 14.25 27.4993C14.25 26.2838 14.7329 25.118 15.5924 24.2584C16.452 23.3989 17.6178 22.916 18.8333 22.916H92.1667ZM64.6667 9.16602C65.8822 9.16602 67.048 9.6489 67.9076 10.5084C68.7671 11.368 69.25 12.5338 69.25 13.7493C69.25 14.9649 68.7671 16.1307 67.9076 16.9903C67.048 17.8498 65.8822 18.3327 64.6667 18.3327H46.3333C45.1178 18.3327 43.952 17.8498 43.0924 16.9903C42.2329 16.1307 41.75 14.9649 41.75 13.7493C41.75 12.5338 42.2329 11.368 43.0924 10.5084C43.952 9.6489 45.1178 9.16602 46.3333 9.16602H64.6667Z" fill="#E6EFF8"/>
<rect x="57.5" y="61" width="58" height="52" rx="26" fill="white"/>
<path fill-rule="evenodd" clip-rule="evenodd" d="M73.6754 70.6817C73.2174 70.2393 72.6039 69.9946 71.9672 70.0001C71.3304 70.0056 70.7213 70.261 70.271 70.7113C69.8207 71.1616 69.5653 71.7707 69.5598 72.4075C69.5542 73.0442 69.799 73.6577 70.2414 74.1157L83.0958 86.9702L70.2414 99.8246C70.0095 100.049 69.8244 100.317 69.6972 100.613C69.5699 100.909 69.5029 101.228 69.5001 101.55C69.4973 101.873 69.5587 102.193 69.6808 102.491C69.803 102.79 69.9833 103.061 70.2113 103.289C70.4393 103.517 70.7105 103.697 71.009 103.819C71.3074 103.941 71.6272 104.003 71.9497 104C72.2721 103.997 72.5908 103.93 72.8871 103.803C73.1834 103.676 73.4514 103.491 73.6754 103.259L86.5298 90.4042L99.3843 103.259C99.8423 103.701 100.456 103.946 101.093 103.94C101.729 103.935 102.338 103.679 102.789 103.229C103.239 102.779 103.494 102.17 103.5 101.533C103.505 100.896 103.261 100.283 102.818 99.8246L89.9638 86.9702L102.818 74.1157C103.261 73.6577 103.505 73.0442 103.5 72.4075C103.494 71.7707 103.239 71.1616 102.789 70.7113C102.338 70.261 101.729 70.0056 101.093 70.0001C100.456 69.9946 99.8423 70.2393 99.3843 70.6817L86.5298 83.5362L73.6754 70.6817Z" fill="#FF0000" fill-opacity="0.46"/>
</g>
<defs>
<clipPath id="clip0_256_2018">
<rect width="110" height="110" fill="white" transform="translate(0.5)"/>
</clipPath>
</defs>
</svg>
