<svg width="40" height="40" viewBox="0 0 40 40" fill="none" xmlns="http://www.w3.org/2000/svg">
<path d="M36.6667 20.0007C36.6667 10.8173 29.1834 3.33398 20.0001 3.33398C10.8167 3.33398 3.33341 10.8173 3.33341 20.0007C3.33341 29.184 10.8167 36.6673 20.0001 36.6673C29.1834 36.6673 36.6667 29.184 36.6667 20.0007ZM18.3334 13.334C18.3334 12.4007 19.0834 11.6673 20.0001 11.6673C20.9167 11.6673 21.6667 12.4173 21.6667 13.334C21.6667 14.2507 20.9167 15.0007 20.0001 15.0007C19.0834 15.0007 18.3334 14.2673 18.3334 13.334ZM18.3334 20.0007C18.3334 19.0673 19.0834 18.334 20.0001 18.334C20.9167 18.334 21.6667 19.084 21.6667 20.0007C21.6667 20.9173 20.9167 21.6673 20.0001 21.6673C19.0834 21.6673 18.3334 20.934 18.3334 20.0007ZM18.3334 26.6673C18.3334 25.734 19.0834 25.0007 20.0001 25.0007C20.9167 25.0007 21.6667 25.7507 21.6667 26.6673C21.6667 27.584 20.9167 28.334 20.0001 28.334C19.0834 28.334 18.3334 27.6007 18.3334 26.6673Z" fill="#E6E6E6"/>
<path d="M14.9931 27.5993L13.4704 16.9421H27.3525L25.8298 27.5993C25.7707 28.0128 25.5645 28.3911 25.2489 28.6648C24.9333 28.9384 24.5296 29.0891 24.1119 29.089H16.711C16.2933 29.0891 15.8896 28.9384 15.574 28.6648C15.2585 28.3911 15.0522 28.0128 14.9931 27.5993ZM28.2202 13.4716H23.882V12.604C23.882 12.3739 23.7906 12.1532 23.6279 11.9905C23.4652 11.8277 23.2445 11.7363 23.0144 11.7363H17.8086C17.5784 11.7363 17.3578 11.8277 17.195 11.9905C17.0323 12.1532 16.9409 12.3739 16.9409 12.604V13.4716H12.6027C12.3726 13.4716 12.1519 13.563 11.9892 13.7257C11.8265 13.8884 11.7351 14.1091 11.7351 14.3392C11.7351 14.5693 11.8265 14.79 11.9892 14.9527C12.1519 15.1155 12.3726 15.2069 12.6027 15.2069H28.2202C28.4503 15.2069 28.671 15.1155 28.8337 14.9527C28.9964 14.79 29.0878 14.5693 29.0878 14.3392C29.0878 14.1091 28.9964 13.8884 28.8337 13.7257C28.671 13.563 28.4503 13.4716 28.2202 13.4716Z" fill="#8A8A8A"/>
</svg>
