<svg width="22" height="22" viewBox="0 0 22 22" fill="none" xmlns="http://www.w3.org/2000/svg">
<path d="M4.1305 20.1113L2.2 6.6H19.8L17.8695 20.1113C17.7946 20.6355 17.5331 21.1152 17.133 21.4621C16.7329 21.809 16.2211 22 15.6915 22H6.3085C5.77893 22 5.26713 21.809 4.86704 21.4621C4.46695 21.1152 4.20543 20.6355 4.1305 20.1113ZM20.9 2.2H15.4V1.1C15.4 0.808262 15.2841 0.528472 15.0778 0.322183C14.8715 0.115892 14.5917 0 14.3 0H7.7C7.40826 0 7.12847 0.115892 6.92218 0.322183C6.71589 0.528472 6.6 0.808262 6.6 1.1V2.2H1.1C0.808262 2.2 0.528472 2.31589 0.322183 2.52218C0.115892 2.72847 0 3.00826 0 3.3C0 3.59174 0.115892 3.87153 0.322183 4.07782C0.528472 4.28411 0.808262 4.4 1.1 4.4H20.9C21.1917 4.4 21.4715 4.28411 21.6778 4.07782C21.8841 3.87153 22 3.59174 22 3.3C22 3.00826 21.8841 2.72847 21.6778 2.52218C21.4715 2.31589 21.1917 2.2 20.9 2.2Z" fill="#D32C2C"/>
</svg>
