<svg width="18" height="15" viewBox="0 0 18 15" fill="none" xmlns="http://www.w3.org/2000/svg">
<path fill-rule="evenodd" clip-rule="evenodd" d="M0 4.17093V4.1856V4.66147V5.77717C0 6.19614 0.441618 6.46806 0.815731 6.27945L1.81198 5.77717L2.23691 5.56293L2.25 5.55634L3.82916 4.76018L3.90873 4.72006L4.65281 4.34492L5.33188 4.00256C5.74424 3.79466 5.74424 3.2059 5.33188 2.998L4.65281 2.65564L3.90873 2.28051L3.82916 2.24039L2.25 1.44423L2.23691 1.43763L1.81198 1.22339L0.815732 0.721114C0.441618 0.532496 0 0.80442 0 1.22339V2.3391V2.81498V2.82963V4.17093ZM10.125 2.37528C9.50368 2.37528 9 2.87897 9 3.50028C9 4.12161 9.50368 4.62528 10.125 4.62528H15.75V12.5003H4.5V9.12528C4.5 8.50397 3.99632 8.00028 3.375 8.00028C2.75368 8.00028 2.25 8.50397 2.25 9.12528V12.5003C2.25 13.743 3.25736 14.7503 4.5 14.7503H15.75C16.9927 14.7503 18 13.743 18 12.5003V4.62528C18 3.38264 16.9927 2.37528 15.75 2.37528H10.125ZM5.625 6.87528C5.625 6.25397 6.12868 5.75028 6.75 5.75028H13.5C14.1213 5.75028 14.625 6.25397 14.625 6.87528C14.625 7.49661 14.1213 8.00028 13.5 8.00028H6.75C6.12868 8.00028 5.625 7.49661 5.625 6.87528ZM6.75 9.12528C6.12868 9.12528 5.625 9.62896 5.625 10.2503C5.625 10.8716 6.12868 11.3753 6.75 11.3753H11.25C11.8713 11.3753 12.375 10.8716 12.375 10.2503C12.375 9.62896 11.8713 9.12528 11.25 9.12528H6.75Z" fill="#F69554"/>
</svg>
