<svg width="18" height="18" viewBox="0 0 18 18" fill="none" xmlns="http://www.w3.org/2000/svg">
<path d="M17.8811 8.96714C17.846 8.70726 17.6941 8.48795 17.4741 8.34701C17.3283 8.25351 17.1475 8.25282 16.9949 8.31814C16.9928 7.75714 16.9949 7.19614 16.9804 6.63582C16.966 6.00676 17.0004 5.37839 17.0238 4.7507C17.032 4.54376 16.8993 4.36501 16.7213 4.27701C16.7054 4.04051 16.6889 3.80401 16.6683 3.5682C16.6553 3.42726 16.6436 3.28632 16.6236 3.14676C16.6195 3.11926 16.6161 3.09176 16.6119 3.06426C16.6016 2.99139 16.5686 2.86557 16.5274 2.80989C16.4676 2.73151 16.4167 2.6442 16.3239 2.59951C16.2558 2.5672 16.1905 2.53557 16.1163 2.52526C16.0441 2.51426 15.9698 2.51426 15.8969 2.50601C15.8811 2.27432 15.8688 2.04264 15.8584 1.81095C15.8846 1.75114 15.899 1.68651 15.899 1.61914C15.899 1.34757 15.6728 1.12551 15.404 1.12276C14.8506 1.11864 14.2971 1.12689 13.7437 1.10351C13.2459 1.08289 12.7489 1.05401 12.2491 1.0437C11.1993 1.02445 10.1474 1.03201 9.0962 1.02445C8.06495 1.01757 7.03507 0.996949 6.00176 0.994199C5.49782 0.993512 4.99388 0.983887 4.49063 0.983887C4.00526 0.983887 3.5192 0.992824 3.03451 1.02651C2.49963 1.06432 1.95788 1.1867 1.46563 1.4012C0.985071 1.60882 0.553321 2.0227 0.404134 2.53282C0.363571 2.67239 0.342946 2.8147 0.324384 2.95976C0.308571 3.07732 0.294821 3.19764 0.308571 3.31589C0.325759 3.4637 0.349821 3.6067 0.389009 3.74832C0.227446 3.83014 0.114009 3.99514 0.111946 4.18557C0.105071 4.7342 0.107821 5.28214 0.0975089 5.82939C0.0885714 6.32714 0.0768838 6.8242 0.0713838 7.32057C0.0624463 8.3257 0.0569463 9.32945 0.0713838 10.3353C0.0816963 11.0338 0.0975088 11.7323 0.100259 12.4308C0.104384 13.132 0.113321 13.8339 0.0975089 14.5366C0.0954464 14.6239 0.126384 14.7023 0.169009 14.7738C0.272821 15.0419 0.381446 15.3114 0.522384 15.5616C0.580134 15.6634 0.653009 15.7576 0.723134 15.8518C0.788446 15.9377 0.855134 16.0229 0.921821 16.1075C1.02357 16.2368 1.1762 16.3385 1.31232 16.4258C1.6162 16.6245 1.97026 16.751 2.32707 16.8136C2.63645 16.8672 2.94857 16.9194 3.26207 16.9387C3.83132 16.9724 4.40332 16.9765 4.97463 16.9868C5.51776 16.9958 6.06088 17.0061 6.60263 17.0054C7.15607 17.0054 7.70813 16.9992 8.26088 17.0026C8.8157 17.0081 9.36913 17.0246 9.92395 17.0129C10.4959 17.0026 11.0666 16.9793 11.6379 16.971C12.1872 16.9621 12.7399 16.9648 13.2893 16.9648C13.8138 16.9648 14.3391 16.9648 14.8623 16.9579C15.1077 16.9552 15.3531 16.9579 15.5999 16.9607C15.8584 16.9634 16.1169 16.9662 16.3768 16.9621C16.5535 16.96 16.7075 16.872 16.812 16.7428C16.9447 16.6479 17.0389 16.5014 17.0354 16.3303C17.0238 15.739 17.0299 15.1478 17.0238 14.5558C17.0148 13.8766 17.0251 13.1987 17.0368 12.5201C17.1998 12.4954 17.3455 12.4479 17.4809 12.3345C17.7828 12.0815 17.8543 11.6477 17.8859 11.2771C17.9058 11.0475 17.9058 10.8165 17.9148 10.5855C17.9292 10.2328 17.9464 9.8767 17.934 9.52264C17.9271 9.33701 17.9058 9.15139 17.8811 8.96714ZM3.29576 4.0742C3.29782 4.02401 3.30057 3.97314 3.28957 3.92157C3.28682 3.90851 3.28476 3.89476 3.28201 3.8817C3.26826 3.67132 3.27513 3.45957 3.2772 3.24782C4.28301 3.2767 5.28951 3.27739 6.2967 3.2822C6.81507 3.28495 7.33345 3.29801 7.85182 3.31107C8.33238 3.32414 8.81157 3.3592 9.29213 3.37501C9.79195 3.3922 10.2931 3.39976 10.795 3.41007C11.2962 3.42039 11.7988 3.4307 12.2999 3.43482C12.8101 3.43895 13.3209 3.44376 13.8303 3.44514C14.2793 3.44651 14.7289 3.46576 15.1778 3.46851C15.3442 3.4692 15.5099 3.47539 15.6749 3.48776C15.7024 3.73045 15.7203 3.97382 15.7278 4.21857C15.4604 4.22407 15.1923 4.22132 14.9262 4.21857C14.4264 4.2117 13.9259 4.19657 13.4261 4.19382C12.4223 4.18832 11.4206 4.15464 10.4169 4.14707C9.3492 4.13951 8.2822 4.14845 7.21451 4.11064C6.5277 4.08726 5.83951 4.08864 5.15338 4.09001C4.78626 4.09001 4.41982 4.09139 4.05407 4.08726C3.80107 4.08382 3.54807 4.08039 3.29576 4.0742ZM16.8498 11.4573C16.8498 11.4573 16.8519 11.4552 16.8533 11.4538C16.8526 11.4552 16.8512 11.4566 16.8498 11.4573ZM16.7164 9.29232C16.7522 9.29507 16.7873 9.29301 16.8209 9.28751C16.8416 9.58932 16.8381 9.89182 16.8326 10.195C16.8299 10.3868 16.8264 10.5786 16.8223 10.7718C16.8203 10.9595 16.823 11.1472 16.8058 11.3335C16.7976 11.3768 16.7879 11.4194 16.7763 11.4621C16.5858 11.4717 16.3933 11.4655 16.2036 11.4607C15.9726 11.4552 15.7416 11.4531 15.5106 11.4531C14.9984 11.4531 14.4841 11.4545 13.9761 11.3968C13.8214 11.3693 13.6715 11.3301 13.5244 11.2758C13.3766 11.2056 13.2411 11.1245 13.1098 11.0296C13.0603 10.9863 13.0129 10.9416 12.9675 10.8942C12.94 10.8516 12.9159 10.8083 12.8926 10.7636C12.8685 10.6989 12.8465 10.6336 12.8286 10.5656C12.8176 10.4123 12.8224 10.2624 12.8389 10.1098C12.8664 9.94614 12.9001 9.78389 12.9565 9.62714C12.9751 9.5907 12.995 9.55632 13.0163 9.52264C13.0424 9.49651 13.0686 9.47107 13.0961 9.4477C13.1483 9.41539 13.2019 9.38582 13.2576 9.35832C13.3931 9.30951 13.5306 9.27239 13.6736 9.24695C13.897 9.22426 14.1198 9.21945 14.3446 9.21395C14.5845 9.20708 14.8251 9.19814 15.0651 9.19814C15.6164 9.19539 16.1685 9.25039 16.7164 9.29232ZM1.36526 3.01889C1.38107 2.93364 1.40032 2.85045 1.42782 2.76864C1.44707 2.73014 1.46838 2.6937 1.49107 2.65795C1.55088 2.59057 1.61482 2.52732 1.68288 2.4682C1.7702 2.40839 1.86095 2.35889 1.9572 2.31282C2.28376 2.18839 2.62682 2.1107 2.97057 2.05845C3.44013 2.00826 3.90763 1.98557 4.37926 1.98214C4.8777 1.97939 5.37682 1.97457 5.87526 1.9732C6.34001 1.9732 6.80476 1.97595 7.27088 1.9787C7.82845 1.98145 8.38738 1.98489 8.94563 1.98145C9.9927 1.97526 11.0398 1.97251 12.0868 1.99314C12.588 2.00345 13.0878 2.01376 13.5897 2.04676C14.0029 2.07564 14.4168 2.08526 14.8306 2.09626C14.8403 2.21795 14.8485 2.34032 14.8623 2.4627C14.8162 2.4627 14.7701 2.46132 14.7241 2.46201C13.7451 2.4682 12.7661 2.48264 11.7864 2.4682C11.268 2.46201 10.7496 2.45101 10.2326 2.43451C9.74313 2.42007 9.25501 2.41595 8.7662 2.3967C8.26638 2.37676 7.76726 2.35614 7.26745 2.34995C6.76763 2.34239 6.26713 2.34307 5.76732 2.33689C4.83507 2.32245 3.90282 2.28876 2.97195 2.24957C2.96576 2.24957 2.95957 2.24889 2.95338 2.24889C2.71276 2.24889 2.51957 2.45239 2.48726 2.6827C2.3422 2.77551 2.23907 2.92951 2.23976 3.11101C2.24113 3.41351 2.24663 3.71807 2.28513 4.0192C2.26451 4.01507 2.24251 4.01576 2.22051 4.01301C2.06101 3.98826 1.90288 3.96145 1.74957 3.91057C1.70007 3.88514 1.65332 3.85695 1.60657 3.82532C1.58182 3.80332 1.55913 3.78064 1.53713 3.75589C1.50001 3.69607 1.46907 3.63489 1.4402 3.57164C1.40582 3.48089 1.37901 3.39014 1.35907 3.29526C1.35288 3.20245 1.35632 3.1117 1.36526 3.01889ZM14.8162 15.8545C14.282 15.8676 13.7471 15.8662 13.2129 15.8779C12.0703 15.8999 10.9284 15.9391 9.78438 15.9473C9.25432 15.9501 8.72288 15.9618 8.19282 15.9576C7.62907 15.9549 7.06601 15.9473 6.50363 15.9459C5.9722 15.9446 5.44076 15.9514 4.90932 15.9535C4.33732 15.9549 3.76188 15.9576 3.19263 15.9013C3.14726 15.8964 3.10188 15.8923 3.05651 15.8875C2.74645 15.8435 2.43432 15.7885 2.14145 15.6799C2.02457 15.6221 1.91182 15.5582 1.80457 15.4846C1.73032 15.4193 1.66501 15.3485 1.60245 15.2729C1.54745 15.2 1.49382 15.1251 1.44363 15.0474C1.38932 14.9608 1.3467 14.8652 1.30545 14.771C1.25801 14.6541 1.21263 14.5359 1.16795 14.4169C1.14113 14.3461 1.10813 14.2836 1.0662 14.2279C1.05932 13.3424 1.05932 12.4576 1.04763 11.5734C1.04007 11.0826 1.03045 10.5903 1.02426 10.0995C1.0167 9.59551 1.02288 9.0902 1.02151 8.58626C1.02151 7.86507 1.02013 7.14389 1.0387 6.42201C1.05245 5.86101 1.06963 5.3007 1.08476 4.7397C1.11776 4.76032 1.15007 4.78301 1.18307 4.80157C1.45738 4.95282 1.76401 4.99064 2.06926 5.02776C2.32501 5.05939 2.58213 5.07314 2.84063 5.08276C3.35351 5.10132 3.86845 5.09445 4.3827 5.09445C4.92445 5.09445 5.46482 5.08826 6.00657 5.08551C6.53938 5.08139 7.06945 5.10614 7.60157 5.12332C8.11445 5.13914 8.62801 5.13914 9.14226 5.13914C9.67507 5.13776 10.2086 5.13364 10.7414 5.13501C11.2639 5.13639 11.7857 5.16732 12.3068 5.19895C13.2858 5.2567 14.2689 5.26014 15.2493 5.27182C15.481 5.27457 15.7161 5.27182 15.9506 5.2622C15.9361 6.24326 15.9492 7.22501 15.9533 8.20607C15.6323 8.19095 15.3112 8.16826 14.9894 8.16482C14.7426 8.16207 14.4958 8.15451 14.2504 8.15039C14.2256 8.1497 14.2016 8.1497 14.1768 8.1497C13.9032 8.1497 13.633 8.17582 13.3614 8.21157C13.0665 8.25214 12.7661 8.37245 12.5131 8.52782C12.324 8.64401 12.1906 8.79939 12.0573 8.97332C11.9734 9.08264 11.9239 9.23732 11.8771 9.36245C11.8263 9.4972 11.7988 9.64157 11.7713 9.7832C11.7004 10.1462 11.6668 10.514 11.7424 10.8798C11.7609 10.9712 11.7974 11.0599 11.8311 11.1472C11.9149 11.3651 12.0284 11.5453 12.1851 11.7192C12.3089 11.8574 12.4753 11.9646 12.6265 12.0705C12.7241 12.1386 12.8314 12.1943 12.94 12.2444C13.094 12.3139 13.2535 12.3868 13.4192 12.4273C13.7128 12.5002 14.0194 12.5243 14.3212 12.5408C14.6594 12.5593 14.9998 12.5566 15.3408 12.5538C15.4844 12.5524 15.6295 12.5511 15.7739 12.5511C15.8344 12.5511 15.8942 12.5518 15.9547 12.5524C15.9471 13.6469 15.9822 14.7408 15.9911 15.8346C15.5999 15.8387 15.2081 15.8456 14.8162 15.8545ZM14.5907 10.2823C14.5907 10.5786 14.3439 10.8261 14.0469 10.8261C13.7506 10.8261 13.5031 10.5793 13.5031 10.2823C13.5031 9.98601 13.7499 9.73851 14.0469 9.73851C14.3432 9.73851 14.5907 9.98601 14.5907 10.2823Z" fill="#F69554"/>
</svg>
