<svg width="21" height="21" viewBox="0 0 21 21" fill="none" xmlns="http://www.w3.org/2000/svg">
<path d="M10.7474 0.768555C5.2001 0.768555 0.703003 5.26565 0.703003 10.813C0.703003 15.5234 3.94615 19.4761 8.32111 20.5617V13.8826H6.24995V10.813H8.32111V9.49035C8.32111 6.07162 9.86836 4.48701 13.2248 4.48701C13.8612 4.48701 14.9593 4.61196 15.4085 4.73651V7.51882C15.1714 7.49391 14.7596 7.48146 14.2481 7.48146C12.6012 7.48146 11.9648 8.10542 11.9648 9.7274V10.813H15.2458L14.6821 13.8826H11.9648V20.7839C16.9384 20.1833 20.7923 15.9485 20.7923 10.813C20.7919 5.26565 16.2948 0.768555 10.7474 0.768555Z" fill="white"/>
</svg>
