<svg width="23" height="23" viewBox="0 0 23 23" fill="none" xmlns="http://www.w3.org/2000/svg">
<path d="M10.6807 17.692C10.6807 18.1295 11.0339 18.4842 11.4696 18.4842C11.9053 18.4842 12.2585 18.1295 12.2585 17.692V14.5232C12.2585 14.0857 11.9053 13.731 11.4696 13.731C11.0339 13.731 10.6807 14.0857 10.6807 14.5232V17.692Z" fill="#4F2396"/>
<path fill-rule="evenodd" clip-rule="evenodd" d="M11.4696 0C10.7069 0 10.0111 0.210316 9.24937 0.567327C8.51204 0.912921 7.65937 1.42298 6.59076 2.06221L5.05961 2.9781C3.88242 3.68225 2.94438 4.24336 2.23414 4.77992C1.50096 5.33382 0.950658 5.90418 0.592045 6.65532C0.233264 7.40683 0.136016 8.19335 0.167205 9.11129C0.197405 9.99979 0.352192 11.0801 0.546277 12.4344L0.853809 14.5806C1.10352 16.3233 1.30166 17.7062 1.59771 18.783C1.90288 19.8928 2.33587 20.7737 3.11721 21.4493C3.89791 22.1244 4.832 22.4263 5.97488 22.5703C7.08484 22.71 8.4852 22.71 10.2519 22.71H12.6874C14.4541 22.71 15.8545 22.71 16.9644 22.5703C18.1073 22.4263 19.0414 22.1244 19.8221 21.4493C20.6034 20.7737 21.0364 19.8928 21.3416 18.783C21.6376 17.7063 21.8358 16.3233 22.0855 14.5806L22.3929 12.4344C22.5871 11.0799 22.7419 9.99979 22.772 9.11129C22.8033 8.19335 22.706 7.40683 22.3472 6.65532C21.9886 5.90418 21.4383 5.33382 20.7052 4.77992C19.9949 4.24336 19.0569 3.68225 17.8797 2.9781L16.3485 2.06221C15.2799 1.42298 14.4272 0.912921 13.6899 0.567327C12.9282 0.210316 12.2324 0 11.4696 0ZM7.36259 3.44475C8.47498 2.77934 9.25984 2.31094 9.91672 2.00305C10.5574 1.70275 11.0182 1.58442 11.4696 1.58442C11.9212 1.58442 12.3818 1.70275 13.0225 2.00305C13.6795 2.31094 14.4643 2.77934 15.5767 3.44475L17.0334 4.31611C18.2582 5.04873 19.1224 5.56695 19.7566 6.04604C20.3755 6.51367 20.7145 6.90061 20.9244 7.34026C21.1341 7.77955 21.2213 8.28479 21.1952 9.05727C21.1682 9.84927 21.0267 10.8441 20.8248 12.254L20.5315 14.3003C20.2722 16.1099 20.0869 17.3929 19.8206 18.3613C19.5604 19.3076 19.2472 19.8555 18.7925 20.2487C18.3371 20.6424 17.7469 20.8749 16.768 20.9982C15.7677 21.1241 14.4663 21.1256 12.6331 21.1256H10.3061C8.47303 21.1256 7.17164 21.1241 6.17123 20.9982C5.1924 20.8749 4.60211 20.6424 4.14676 20.2487C3.69206 19.8555 3.37884 19.3076 3.11865 18.3613C2.8524 17.3929 2.66705 16.1099 2.40775 14.3003L2.11452 12.2539C1.91249 10.8441 1.77105 9.84927 1.74413 9.05727C1.71789 8.28479 1.80511 7.77955 2.01484 7.34026C2.22474 6.90061 2.56372 6.51367 3.18273 6.04604C3.8169 5.56695 4.68114 5.04873 5.90588 4.31611L7.36259 3.44475Z" fill="#4F2396"/>
</svg>
