<svg width="22" height="22" viewBox="0 0 22 22" fill="none" xmlns="http://www.w3.org/2000/svg">
<path d="M9.04546 15.0264C8.70855 15.0264 8.43323 15.298 8.43323 15.6386V17.4862C8.43323 17.8231 8.70496 18.0985 9.04546 18.0985C9.38601 18.0985 9.65769 17.8268 9.65769 17.4862V15.6386C9.65405 15.2981 9.38237 15.0264 9.04546 15.0264Z" fill="#4F2396"/>
<path d="M18.0625 5.49108V0.607624C17.9973 -0.0626092 17.3959 -0.0517376 17.1966 0.0533365L7.67967 4.50203H1.80718C1.47027 4.50203 1.19495 4.77377 1.19495 5.11427V12.4721C1.19495 12.8091 1.46668 13.0844 1.80718 13.0844H2.35782L4.04601 21.5109C4.10396 21.7971 4.35395 22 4.64379 22H8.00571H8.00935C8.34626 22 8.62158 21.7283 8.62158 21.3878C8.62158 21.3189 6.96237 13.0808 6.96237 13.0808H7.67603L17.1894 17.5295C17.9104 17.7071 18.0553 17.1818 18.0553 16.9753V12.0918C19.6203 11.802 20.805 10.4326 20.805 8.78783C20.8122 7.14665 19.6275 5.78091 18.0625 5.49108ZM7.25943 20.7755H5.14736L3.60409 13.0807H5.71616L7.25943 20.7755ZM7.32466 11.8599H2.41941V5.72291H7.32461L7.32466 11.8599ZM16.8416 16.0115L8.54913 12.1352V10.2079H8.79912C9.13603 10.2079 9.41135 9.93613 9.41135 9.59564C9.41135 9.25873 9.13967 8.9834 8.79912 8.9834H8.54913V7.76253H10.0199C10.3568 7.76253 10.6322 7.49085 10.6322 7.15029C10.6322 6.81339 10.3604 6.53806 10.0199 6.53806H8.54913V5.43672L16.8416 1.56035V16.0115ZM18.0625 10.8419V6.74457C18.9465 7.00902 19.5913 7.82776 19.5913 8.79141C19.5913 9.75865 18.9465 10.5774 18.0625 10.8419Z" fill="#4F2396" fill-opacity="0.9"/>
</svg>
