<svg width="20" height="20" viewBox="0 0 20 20" fill="none" xmlns="http://www.w3.org/2000/svg">
<path d="M10 12.7507V0.833984M10 0.833984L12.75 4.04232M10 0.833984L7.25 4.04232" stroke="#4F2396" stroke-opacity="0.8" stroke-width="1.5" stroke-linecap="round" stroke-linejoin="round"/>
<path d="M6.33342 19.167H13.6668C16.2595 19.167 17.5558 19.167 18.3613 18.3615C19.1668 17.5562 19.1668 16.2597 19.1668 13.667V12.7503C19.1668 10.1576 19.1668 8.8613 18.3613 8.05582C17.6569 7.35147 16.5772 7.26305 14.5834 7.25195M5.41675 7.25195C3.42298 7.26305 2.34322 7.35147 1.63888 8.05581C0.83342 8.8613 0.83342 10.1576 0.83342 12.7503V13.667C0.83342 16.2597 0.83342 17.5562 1.63888 18.3615C1.91369 18.6364 2.24565 18.8174 2.66675 18.9367" stroke="#4F2396" stroke-opacity="0.8" stroke-width="1.5" stroke-linecap="round"/>
</svg>
