<svg width="20" height="20" viewBox="0 0 20 20" fill="none" xmlns="http://www.w3.org/2000/svg">
<g clip-path="url(#clip0_15_458)">
<path d="M10.001 15.0016C12.7626 15.0016 15.0014 12.7629 15.0014 10.0013C15.0014 7.23969 12.7626 5.00098 10.001 5.00098C7.23945 5.00098 5.00073 7.23969 5.00073 10.0013C5.00073 12.7629 7.23945 15.0016 10.001 15.0016Z" fill="#FFF140"/>
<path fill-rule="evenodd" clip-rule="evenodd" d="M3.75031 9.99902C3.75031 9.30809 3.19125 8.74902 2.50031 8.74902H1.25C0.559062 8.74902 0 9.30809 0 9.99902C0 10.69 0.559062 11.249 1.25 11.249H2.5C3.19125 11.249 3.75031 10.69 3.75031 9.99902Z" fill="#FFF140"/>
<path fill-rule="evenodd" clip-rule="evenodd" d="M3.81383 14.4181L2.92883 15.3034C2.44039 15.7915 2.44039 16.5828 2.92883 17.0709C3.41695 17.559 4.2082 17.559 4.69664 17.0709L5.58195 16.1859C6.07008 15.6978 6.07008 14.9062 5.58195 14.4181C5.0932 13.9296 4.30227 13.9296 3.81383 14.4181Z" fill="#FFF140"/>
<path fill-rule="evenodd" clip-rule="evenodd" d="M10.001 16.2495C9.31004 16.2495 8.75098 16.8086 8.75098 17.4995V18.7498C8.75098 19.4408 9.31004 19.9998 10.001 19.9998C10.6919 19.9998 11.251 19.4408 11.251 18.7498L11.2497 17.4995C11.251 16.8086 10.6907 16.2495 10.001 16.2495Z" fill="#FFF140"/>
<path fill-rule="evenodd" clip-rule="evenodd" d="M16.1869 14.4194C15.6997 13.9301 14.9084 13.9301 14.4203 14.4182C13.9322 14.9063 13.9322 15.6979 14.4203 16.186L15.3044 17.0697C15.7925 17.5604 16.5837 17.5579 17.0719 17.0697C17.56 16.5816 17.5612 15.7916 17.0719 15.3022L16.1869 14.4194Z" fill="#FFF140"/>
<path fill-rule="evenodd" clip-rule="evenodd" d="M18.7518 8.74902L17.499 8.75152C16.8105 8.74902 16.2515 9.30809 16.2515 9.99902C16.249 10.69 16.8105 11.249 17.499 11.249H18.7493C19.4427 11.2515 19.9993 10.69 19.9993 9.99902C20.0005 9.30934 19.4427 8.74902 18.7518 8.74902Z" fill="#FFF140"/>
<path fill-rule="evenodd" clip-rule="evenodd" d="M16.1869 5.58082L17.0706 4.69676C17.5625 4.20738 17.5587 3.41738 17.0706 2.92895C16.5834 2.43926 15.7925 2.43926 15.3044 2.9277L14.4203 3.81395C13.9322 4.29988 13.9322 5.09082 14.4203 5.57926C14.9059 6.07051 15.6997 6.06801 16.1869 5.58082Z" fill="#FFF140"/>
<path fill-rule="evenodd" clip-rule="evenodd" d="M10.001 3.74848C10.6907 3.75348 11.251 3.18942 11.251 2.50098V1.25098C11.251 0.557547 10.6919 0.000984914 10.001 0.000984914C9.31004 -0.00151509 8.75098 0.557547 8.75098 1.2488L8.75348 2.5013C8.75098 3.18942 9.31004 3.74848 10.001 3.74848Z" fill="#FFF140"/>
<path fill-rule="evenodd" clip-rule="evenodd" d="M3.81613 5.57961C4.30207 6.06774 5.09082 6.06774 5.58051 5.57836C6.07238 5.09367 6.06988 4.30024 5.58301 3.81305L4.69895 2.9293C4.20832 2.43836 3.41957 2.44211 2.93113 2.9293C2.43895 3.41649 2.43895 4.20742 2.92738 4.69586L3.81613 5.57961Z" fill="#FFF140"/>
</g>
<defs>
<clipPath id="clip0_15_458">
<rect width="20" height="20" fill="white"/>
</clipPath>
</defs>
</svg>
