<svg width="21" height="21" viewBox="0 0 21 21" fill="none" xmlns="http://www.w3.org/2000/svg">
<g clip-path="url(#clip0_161_642)">
<path d="M10.5089 2.57734C13.1927 2.57734 13.5105 2.58911 14.5659 2.63619C15.5468 2.67935 16.0765 2.84415 16.4297 2.98147C16.8966 3.16196 17.234 3.38168 17.5832 3.73088C17.9363 4.08401 18.1521 4.41751 18.3326 4.88442C18.4699 5.23755 18.6347 5.77116 18.6779 6.74814C18.725 7.80751 18.7367 8.12533 18.7367 10.8052C18.7367 13.4889 18.725 13.8067 18.6779 14.8622C18.6347 15.8431 18.4699 16.3728 18.3326 16.7259C18.1521 17.1928 17.9324 17.5302 17.5832 17.8794C17.2301 18.2325 16.8966 18.4483 16.4297 18.6288C16.0765 18.7662 15.5429 18.931 14.5659 18.9741C13.5066 19.0212 13.1887 19.033 10.5089 19.033C7.82517 19.033 7.50736 19.0212 6.45191 18.9741C5.47101 18.931 4.94132 18.7662 4.58819 18.6288C4.12128 18.4483 3.78385 18.2286 3.43465 17.8794C3.08153 17.5263 2.86573 17.1928 2.68524 16.7259C2.54791 16.3728 2.38312 15.8391 2.33996 14.8622C2.29288 13.8028 2.28111 13.485 2.28111 10.8052C2.28111 8.1214 2.29288 7.80359 2.33996 6.74814C2.38312 5.76723 2.54791 5.23755 2.68524 4.88442C2.86573 4.41751 3.08545 4.08008 3.43465 3.73088C3.78778 3.37776 4.12128 3.16196 4.58819 2.98147C4.94132 2.84415 5.47493 2.67935 6.45191 2.63619C7.50736 2.58911 7.82517 2.57734 10.5089 2.57734ZM10.5089 0.768555C7.78201 0.768555 7.44066 0.780326 6.36951 0.827409C5.30229 0.874492 4.56857 1.04713 3.93295 1.29432C3.26986 1.55328 2.70878 1.89463 2.15163 2.45571C1.59055 3.01286 1.2492 3.57394 0.990241 4.2331C0.743054 4.87265 0.570415 5.60244 0.523332 6.66967C0.476248 7.74473 0.464478 8.08609 0.464478 10.813C0.464478 13.5399 0.476248 13.8813 0.523332 14.9524C0.570415 16.0196 0.743054 16.7533 0.990241 17.389C1.2492 18.0521 1.59055 18.6131 2.15163 19.1703C2.70878 19.7274 3.26986 20.0727 3.92903 20.3278C4.56857 20.5749 5.29837 20.7476 6.36559 20.7947C7.43673 20.8417 7.77809 20.8535 10.505 20.8535C13.2319 20.8535 13.5733 20.8417 14.6444 20.7947C15.7116 20.7476 16.4453 20.5749 17.081 20.3278C17.7401 20.0727 18.3012 19.7274 18.8584 19.1703C19.4155 18.6131 19.7608 18.0521 20.0158 17.3929C20.263 16.7533 20.4357 16.0236 20.4827 14.9563C20.5298 13.8852 20.5416 13.5438 20.5416 10.8169C20.5416 8.09001 20.5298 7.74866 20.4827 6.67751C20.4357 5.61029 20.263 4.87658 20.0158 4.24095C19.7686 3.57394 19.4273 3.01286 18.8662 2.45571C18.3091 1.89855 17.748 1.55328 17.0888 1.29824C16.4493 1.05105 15.7195 0.878416 14.6523 0.831332C13.5772 0.780326 13.2358 0.768555 10.5089 0.768555Z" fill="white"/>
<path d="M10.5089 5.65332C7.66037 5.65332 5.34937 7.96433 5.34937 10.8129C5.34937 13.6614 7.66037 15.9724 10.5089 15.9724C13.3575 15.9724 15.6685 13.6614 15.6685 10.8129C15.6685 7.96433 13.3575 5.65332 10.5089 5.65332ZM10.5089 14.1597C8.66089 14.1597 7.16207 12.6609 7.16207 10.8129C7.16207 8.96485 8.66089 7.46603 10.5089 7.46603C12.3569 7.46603 13.8558 8.96485 13.8558 10.8129C13.8558 12.6609 12.3569 14.1597 10.5089 14.1597Z" fill="white"/>
<path d="M17.0771 5.44967C17.0771 6.11668 16.5356 6.65422 15.8725 6.65422C15.2055 6.65422 14.668 6.11276 14.668 5.44967C14.668 4.78265 15.2094 4.24512 15.8725 4.24512C16.5356 4.24512 17.0771 4.78658 17.0771 5.44967Z" fill="white"/>
</g>
<defs>
<clipPath id="clip0_161_642">
<rect width="20.0889" height="20.0889" fill="white" transform="translate(0.464478 0.768555)"/>
</clipPath>
</defs>
</svg>
