<svg width="21" height="21" viewBox="0 0 21 21" fill="none" xmlns="http://www.w3.org/2000/svg">
<path d="M18.7449 0.768555H1.62619C0.806157 0.768555 0.143066 1.41595 0.143066 2.21637V19.4057C0.143066 20.2061 0.806157 20.8574 1.62619 20.8574H18.7449C19.5649 20.8574 20.232 20.2061 20.232 19.4096V2.21637C20.232 1.41595 19.5649 0.768555 18.7449 0.768555ZM6.10303 17.8873H3.12109V8.29796H6.10303V17.8873ZM4.61206 6.9914C3.6547 6.9914 2.88175 6.21845 2.88175 5.26501C2.88175 4.31158 3.6547 3.53862 4.61206 3.53862C5.5655 3.53862 6.33845 4.31158 6.33845 5.26501C6.33845 6.21453 5.5655 6.9914 4.61206 6.9914ZM17.2618 17.8873H14.2838V13.226C14.2838 12.1156 14.2641 10.6835 12.7339 10.6835C11.1841 10.6835 10.9487 11.8959 10.9487 13.1475V17.8873H7.97459V8.29796H10.831V9.60845H10.8702C11.2665 8.85512 12.2396 8.05862 13.6874 8.05862C16.7046 8.05862 17.2618 10.044 17.2618 12.6257V17.8873Z" fill="white"/>
</svg>
