<svg width="118" height="94" viewBox="0 0 118 94" fill="none" xmlns="http://www.w3.org/2000/svg">
<path d="M0 85.0095H3.5697C4.42478 85.0095 5.17684 85.1747 5.83103 85.4999C6.48522 85.825 6.99518 86.2844 7.35576 86.878C7.71633 87.4715 7.90177 88.158 7.90177 88.9477C7.90177 89.7374 7.72148 90.4239 7.35576 91.0175C6.99003 91.611 6.48522 92.0704 5.83103 92.3956C5.17684 92.7207 4.42478 92.8859 3.5697 92.8859H0V85.0095ZM3.47699 91.3839C4.2651 91.3839 4.88838 91.1671 5.35713 90.7284C5.82588 90.2897 6.05768 89.6961 6.05768 88.9477C6.05768 88.1993 5.82588 87.6057 5.35713 87.167C4.88838 86.7283 4.2651 86.5115 3.47699 86.5115H1.81319V91.3942H3.47699V91.3839Z" fill="#191919"/>
<path d="M12.6375 85.0095H14.4558V91.3994H18.3964V92.8859H12.6375V85.0095Z" fill="#191919"/>
<path d="M22.7817 85.0095H24.6001V92.8808H22.7817V85.0095Z" fill="#191919"/>
<path d="M29.8336 85.0095H31.652V91.3994H35.5925V92.8859H29.8336V85.0095Z" fill="#191919"/>
<path d="M47.3037 92.762C46.7216 92.5917 46.258 92.3749 45.9077 92.1013L46.5258 90.7284C46.8607 90.9761 47.2625 91.1723 47.726 91.3271C48.1896 91.4768 48.6532 91.5542 49.1168 91.5542C49.6319 91.5542 50.0131 91.4768 50.2604 91.3219C50.5076 91.1671 50.6313 90.9658 50.6313 90.7077C50.6313 90.5219 50.5592 90.3671 50.4149 90.2432C50.2707 90.1193 50.0801 90.0213 49.8534 89.9438C49.6268 89.8716 49.3177 89.789 48.9262 89.6961C48.3287 89.5516 47.8394 89.4122 47.4582 89.2677C47.077 89.1232 46.7473 88.8961 46.4743 88.5812C46.2013 88.2664 46.0622 87.8483 46.0622 87.3218C46.0622 86.8624 46.1859 86.4495 46.4331 86.0779C46.6804 85.7063 47.0512 85.4121 47.5509 85.1953C48.0506 84.9785 48.6584 84.8701 49.3744 84.8701C49.874 84.8701 50.3634 84.9321 50.8425 85.0508C51.3215 85.1695 51.7387 85.345 52.0993 85.5669L51.5379 86.9502C50.8116 86.5373 50.0852 86.3308 49.3589 86.3308C48.849 86.3308 48.4729 86.4134 48.2308 86.5786C47.9887 86.7437 47.8651 86.9605 47.8651 87.2289C47.8651 87.4973 48.0042 87.6986 48.2875 87.8328C48.5657 87.9618 48.9984 88.0909 49.5753 88.2199C50.1728 88.3644 50.6622 88.5038 51.0434 88.6483C51.4245 88.7928 51.7542 89.0148 52.0272 89.3245C52.3002 89.6342 52.4393 90.0471 52.4393 90.5735C52.4393 91.0226 52.3157 91.4355 52.0633 91.8071C51.8109 92.1788 51.4348 92.473 50.9352 92.6897C50.4355 92.9065 49.8225 93.0149 49.1065 93.0149C48.4833 93.0149 47.8857 92.9323 47.3037 92.762Z" fill="#191919"/>
<path d="M58.6837 86.4909H56.1699V85.0044H63.0157V86.4909H60.502V92.8808H58.6837V86.4909Z" fill="#191919"/>
<path d="M72.5309 91.193H68.8839L68.1885 92.8808H66.3239L69.8266 85.0095H71.6243L75.1374 92.8808H73.2263L72.5309 91.193ZM71.9591 89.8097L70.7126 86.7954L69.466 89.8097H71.9591Z" fill="#191919"/>
<path d="M80.9489 86.4909H78.4352V85.0044H85.281V86.4909H82.7672V92.8808H80.9489V86.4909Z" fill="#191919"/>
<path d="M89.6251 85.0095H91.4435V92.8808H89.6251V85.0095Z" fill="#191919"/>
<path d="M98.2731 92.4886C97.6189 92.1376 97.1038 91.6525 96.7329 91.0331C96.3621 90.4137 96.1766 89.7169 96.1766 88.9479C96.1766 88.1788 96.3621 87.482 96.7329 86.8626C97.1038 86.2432 97.6138 85.7581 98.2731 85.4071C98.9273 85.0561 99.6639 84.8806 100.478 84.8806C101.292 84.8806 102.028 85.0561 102.677 85.4071C103.326 85.7581 103.841 86.2432 104.217 86.8626C104.594 87.482 104.779 88.1788 104.779 88.9479C104.779 89.7169 104.594 90.4137 104.217 91.0331C103.841 91.6525 103.331 92.1376 102.677 92.4886C102.023 92.8396 101.292 93.0151 100.478 93.0151C99.6639 93.0151 98.9325 92.8396 98.2731 92.4886ZM101.74 91.1466C102.116 90.935 102.409 90.6356 102.621 90.2537C102.832 89.8718 102.94 89.4382 102.94 88.9479C102.94 88.4575 102.832 88.0239 102.621 87.642C102.409 87.2601 102.116 86.9607 101.74 86.7491C101.364 86.5374 100.947 86.4291 100.483 86.4291C100.019 86.4291 99.6021 86.5374 99.2261 86.7491C98.85 86.9607 98.5564 87.2601 98.3452 87.642C98.134 88.0239 98.0259 88.4575 98.0259 88.9479C98.0259 89.4382 98.134 89.8718 98.3452 90.2537C98.5564 90.6356 98.85 90.935 99.2261 91.1466C99.6021 91.3583 100.019 91.4666 100.483 91.4666C100.947 91.4666 101.364 91.3583 101.74 91.1466Z" fill="#191919"/>
<path d="M116.727 85.0095V92.8808H115.233L111.313 88.1012V92.8808H109.515V85.0095H111.019L114.924 89.789V85.0095H116.727Z" fill="#191919"/>
<path d="M9.76086 75.3883C9.78147 75.4193 9.78662 75.4502 9.78662 75.476V76.8541C9.78662 76.8799 9.77632 76.9109 9.76086 76.9419C9.74026 76.9728 9.7042 76.9883 9.65269 76.9883H8.12797V79.44H4.0174C2.85325 79.44 1.99817 79.1355 1.45731 78.5316C0.916441 77.9277 0.643433 77.1638 0.643433 76.2451V73.556H2.56994V75.9457C2.56994 77.1845 3.24474 77.8039 4.58917 77.8039H6.19631V70.1546H8.12282V75.3367H9.64754C9.7042 75.3418 9.74026 75.3573 9.76086 75.3883ZM3.26534 70.17V68.4358H5.24335V70.17H3.26534Z" fill="#191919"/>
<path d="M11.5485 75.3882C11.5691 75.4192 11.5742 75.4502 11.5742 75.476V76.8541C11.5742 76.8799 11.5639 76.9109 11.5485 76.9418C11.5278 76.9728 11.4918 76.9883 11.4403 76.9883H9.65285C9.59618 76.9883 9.56013 76.9728 9.54468 76.9418C9.52407 76.9109 9.51892 76.8799 9.51892 76.8541V75.476C9.51892 75.4502 9.52922 75.4192 9.54468 75.3882C9.56528 75.3573 9.60134 75.3418 9.65285 75.3418H11.4403C11.4918 75.3418 11.5278 75.3573 11.5485 75.3882Z" fill="#191919"/>
<path d="M13.3369 75.3882C13.3575 75.4192 13.3627 75.4502 13.3627 75.476V76.8541C13.3627 76.8799 13.3524 76.9109 13.3369 76.9418C13.3163 76.9728 13.2802 76.9883 13.2287 76.9883H11.4413C11.3846 76.9883 11.3486 76.9728 11.3331 76.9418C11.3125 76.9109 11.3074 76.8799 11.3074 76.8541V75.476C11.3074 75.4502 11.3177 75.4192 11.3331 75.3882C11.3537 75.3573 11.3898 75.3418 11.4413 75.3418H13.2287C13.2802 75.3418 13.3163 75.3573 13.3369 75.3882Z" fill="#191919"/>
<path d="M15.1222 75.3882C15.1428 75.4192 15.1479 75.4502 15.1479 75.476V76.8541C15.1479 76.8799 15.1376 76.9109 15.1222 76.9418C15.1016 76.9728 15.0655 76.9883 15.014 76.9883H13.2266C13.1699 76.9883 13.1339 76.9728 13.1184 76.9418C13.0978 76.9109 13.0927 76.8799 13.0927 76.8541V75.476C13.0927 75.4502 13.103 75.4192 13.1184 75.3882C13.139 75.3573 13.1751 75.3418 13.2266 75.3418H15.014C15.0655 75.3418 15.1016 75.3573 15.1222 75.3882Z" fill="#191919"/>
<path d="M16.9108 75.3882C16.9314 75.4192 16.9365 75.4502 16.9365 75.476V76.8541C16.9365 76.8799 16.9262 76.9109 16.9108 76.9418C16.8902 76.9728 16.8541 76.9883 16.8026 76.9883H15.0152C14.9585 76.9883 14.9224 76.9728 14.907 76.9418C14.8864 76.9109 14.8812 76.8799 14.8812 76.8541V75.476C14.8812 75.4502 14.8915 75.4192 14.907 75.3882C14.9276 75.3573 14.9636 75.3418 15.0152 75.3418H16.8026C16.8541 75.3418 16.8902 75.3573 16.9108 75.3882Z" fill="#191919"/>
<path d="M18.6992 75.3882C18.7198 75.4192 18.725 75.4502 18.725 75.476V76.8541C18.725 76.8799 18.7147 76.9109 18.6992 76.9418C18.6786 76.9728 18.6425 76.9883 18.591 76.9883H16.8036C16.7469 76.9883 16.7109 76.9728 16.6954 76.9418C16.6748 76.9109 16.6697 76.8799 16.6697 76.8541V75.476C16.6697 75.4502 16.68 75.4192 16.6954 75.3882C16.716 75.3573 16.7521 75.3418 16.8036 75.3418H18.591C18.6425 75.3418 18.6786 75.3573 18.6992 75.3882Z" fill="#191919"/>
<path d="M30.5897 74.7586C30.8009 74.9908 31.0327 75.1405 31.2851 75.2179C31.5375 75.2953 31.9342 75.3366 32.475 75.3366C32.5317 75.3366 32.5677 75.3521 32.5832 75.3831C32.6038 75.4141 32.609 75.445 32.609 75.4708V76.8489C32.609 76.8748 32.5987 76.9057 32.5832 76.9367C32.5626 76.9677 32.5265 76.9831 32.475 76.9831C31.8878 76.9728 31.4191 76.8902 31.0636 76.7354C30.7082 76.5806 30.3734 76.3018 30.054 75.8941C29.7965 76.2347 29.4719 76.498 29.0702 76.6941C28.6735 76.8851 28.2357 76.9831 27.7566 76.9831C27.1334 76.9831 26.6337 76.9057 26.2628 76.7509C25.8919 76.596 25.5777 76.3638 25.3202 76.0644C24.8051 76.6786 24.1354 76.9883 23.3112 76.9883H18.5825C18.5259 76.9883 18.4898 76.9728 18.4744 76.9418C18.4538 76.9109 18.4486 76.8799 18.4486 76.8541V75.476C18.4486 75.4502 18.4589 75.4192 18.4744 75.3883C18.495 75.3573 18.531 75.3418 18.5825 75.3418H19.9579V70.1597H21.8844V75.3418H22.7395C23.1052 75.3418 23.4194 75.1973 23.6821 74.9082C23.9448 74.6192 24.0736 74.2372 24.0736 73.7572V70.1597H26.0001V74.0721C26.0001 74.485 26.1546 74.7998 26.4586 75.0166C26.7676 75.2334 27.1076 75.3418 27.4836 75.3418C27.8494 75.3418 28.1533 75.2128 28.3902 74.9495C28.6272 74.6863 28.7456 74.2889 28.7456 73.7572V69.5816H30.6722V74.0618C30.6722 74.2321 30.6464 74.4643 30.5897 74.7586ZM22.6983 68.988V67.2538H24.6763V68.988H22.6983ZM24.156 66.686V65.1169H25.9434V66.686H24.156ZM25.4489 68.988V67.2538H27.427V68.988H25.4489Z" fill="#191919"/>
<path d="M34.3779 75.3882C34.3985 75.4192 34.4037 75.4502 34.4037 75.476V76.8541C34.4037 76.8799 34.3934 76.9109 34.3779 76.9418C34.3573 76.9728 34.3213 76.9883 34.2697 76.9883H32.4823C32.4257 76.9883 32.3896 76.9728 32.3741 76.9418C32.3535 76.9109 32.3484 76.8799 32.3484 76.8541V75.476C32.3484 75.4502 32.3587 75.4192 32.3741 75.3882C32.3947 75.3573 32.4308 75.3418 32.4823 75.3418H34.2697C34.3213 75.3418 34.3573 75.3573 34.3779 75.3882Z" fill="#191919"/>
<path d="M36.1664 75.3882C36.187 75.4192 36.1921 75.4502 36.1921 75.476V76.8541C36.1921 76.8799 36.1818 76.9109 36.1664 76.9418C36.1458 76.9728 36.1097 76.9883 36.0582 76.9883H34.2708C34.2141 76.9883 34.178 76.9728 34.1626 76.9418C34.142 76.9109 34.1368 76.8799 34.1368 76.8541V75.476C34.1368 75.4502 34.1471 75.4192 34.1626 75.3882C34.1832 75.3573 34.2193 75.3418 34.2708 75.3418H36.0582C36.1097 75.3418 36.1458 75.3573 36.1664 75.3882Z" fill="#191919"/>
<path d="M37.9518 75.3882C37.9724 75.4192 37.9775 75.4502 37.9775 75.476V76.8541C37.9775 76.8799 37.9672 76.9109 37.9518 76.9418C37.9312 76.9728 37.8951 76.9883 37.8436 76.9883H36.0562C35.9995 76.9883 35.9635 76.9728 35.948 76.9418C35.9274 76.9109 35.9222 76.8799 35.9222 76.8541V75.476C35.9222 75.4502 35.9325 75.4192 35.948 75.3882C35.9686 75.3573 36.0047 75.3418 36.0562 75.3418H37.8436C37.8951 75.3418 37.9312 75.3573 37.9518 75.3882Z" fill="#191919"/>
<path d="M39.7402 75.3882C39.7608 75.4192 39.766 75.4502 39.766 75.476V76.8541C39.766 76.8799 39.7557 76.9109 39.7402 76.9418C39.7196 76.9728 39.6836 76.9883 39.6321 76.9883H37.8446C37.788 76.9883 37.7519 76.9728 37.7365 76.9418C37.7158 76.9109 37.7107 76.8799 37.7107 76.8541V75.476C37.7107 75.4502 37.721 75.4192 37.7365 75.3882C37.7571 75.3573 37.7931 75.3418 37.8446 75.3418H39.6321C39.6836 75.3418 39.7196 75.3573 39.7402 75.3882Z" fill="#191919"/>
<path d="M44.0567 74.7742C44.2576 74.9962 44.4894 75.1458 44.7418 75.2233C44.9993 75.3007 45.3908 75.342 45.9265 75.342C45.9832 75.342 46.0192 75.3575 46.0347 75.3884C46.0553 75.4194 46.0604 75.4504 46.0604 75.4762V76.8543C46.0604 76.8801 46.0501 76.9111 46.0347 76.942C46.0141 76.973 45.978 76.9885 45.9265 76.9885C45.3496 76.9782 44.886 76.9007 44.5357 76.7459C44.1854 76.5962 43.8558 76.3278 43.5467 75.9407C43.3098 76.271 43.0058 76.5291 42.6453 76.7149C42.2847 76.9007 41.8829 76.9885 41.4399 76.9885H39.6267C39.5701 76.9885 39.534 76.973 39.5186 76.942C39.498 76.9111 39.4928 76.8801 39.4928 76.8543V75.4762C39.4928 75.4504 39.5031 75.4194 39.5186 75.3884C39.5392 75.3575 39.5752 75.342 39.6267 75.342H40.863C41.2287 75.342 41.5429 75.1975 41.8056 74.9084C42.0683 74.6194 42.1971 74.2374 42.1971 73.7574V70.0205H44.1236V74.0568C44.1236 74.289 44.103 74.5265 44.0567 74.7742ZM40.3324 79.9408V78.2066H42.3104V79.9408H40.3324ZM43.0831 79.9408V78.2066H45.0611V79.9408H43.0831Z" fill="#191919"/>
<path d="M47.8282 75.3882C47.8488 75.4192 47.854 75.4502 47.854 75.476V76.8541C47.854 76.8799 47.8437 76.9109 47.8282 76.9418C47.8076 76.9728 47.7716 76.9883 47.7201 76.9883H45.9326C45.876 76.9883 45.8399 76.9728 45.8245 76.9418C45.8039 76.9109 45.7987 76.8799 45.7987 76.8541V75.476C45.7987 75.4502 45.809 75.4192 45.8245 75.3882C45.8451 75.3573 45.8811 75.3418 45.9326 75.3418H47.7201C47.7716 75.3418 47.8076 75.3573 47.8282 75.3882Z" fill="#191919"/>
<path d="M49.6135 75.3882C49.6341 75.4192 49.6393 75.4502 49.6393 75.476V76.8541C49.6393 76.8799 49.629 76.9109 49.6135 76.9418C49.5929 76.9728 49.5569 76.9883 49.5053 76.9883H47.7179C47.6613 76.9883 47.6252 76.9728 47.6097 76.9418C47.5891 76.9109 47.584 76.8799 47.584 76.8541V75.476C47.584 75.4502 47.5943 75.4192 47.6097 75.3882C47.6304 75.3573 47.6664 75.3418 47.7179 75.3418H49.5053C49.5569 75.3418 49.5929 75.3573 49.6135 75.3882Z" fill="#191919"/>
<path d="M51.402 75.3882C51.4226 75.4192 51.4277 75.4502 51.4277 75.476V76.8541C51.4277 76.8799 51.4174 76.9109 51.402 76.9418C51.3814 76.9728 51.3453 76.9883 51.2938 76.9883H49.5064C49.4497 76.9883 49.4137 76.9728 49.3982 76.9418C49.3776 76.9109 49.3724 76.8799 49.3724 76.8541V75.476C49.3724 75.4502 49.3827 75.4192 49.3982 75.3882C49.4188 75.3573 49.4549 75.3418 49.5064 75.3418H51.2938C51.3453 75.3418 51.3814 75.3573 51.402 75.3882Z" fill="#191919"/>
<path d="M53.1905 75.3882C53.2111 75.4192 53.2163 75.4502 53.2163 75.476V76.8541C53.2163 76.8799 53.206 76.9109 53.1905 76.9418C53.1699 76.9728 53.1339 76.9883 53.0824 76.9883H51.2949C51.2383 76.9883 51.2022 76.9728 51.1868 76.9418C51.1662 76.9109 51.161 76.8799 51.161 76.8541V75.476C51.161 75.4502 51.1713 75.4192 51.1868 75.3882C51.2074 75.3573 51.2434 75.3418 51.2949 75.3418H53.0824C53.1339 75.3418 53.1699 75.3573 53.1905 75.3882Z" fill="#191919"/>
<path d="M57.507 74.7739C57.7079 74.9959 57.9397 75.1455 58.1921 75.223C58.4496 75.3004 58.8411 75.3417 59.3768 75.3417C59.4335 75.3417 59.4696 75.3572 59.485 75.3881C59.5056 75.4191 59.5108 75.4501 59.5108 75.4759V76.854C59.5108 76.8798 59.5005 76.9108 59.485 76.9417C59.4644 76.9727 59.4283 76.9882 59.3768 76.9882C58.7999 76.9779 58.3363 76.9004 57.986 76.7456C57.6358 76.5959 57.3061 76.3275 56.997 75.9404C56.7601 76.2707 56.4562 76.5288 56.0956 76.7146C55.735 76.9004 55.3332 76.9882 54.8902 76.9882H53.077C53.0204 76.9882 52.9843 76.9727 52.9689 76.9417C52.9483 76.9108 52.9431 76.8798 52.9431 76.854V75.4759C52.9431 75.4501 52.9534 75.4191 52.9689 75.3881C52.9895 75.3572 53.0255 75.3417 53.077 75.3417H54.3133C54.679 75.3417 54.9933 75.1972 55.256 74.9081C55.5187 74.6191 55.6474 74.2371 55.6474 73.7571V70.0202H57.574V74.0565C57.574 74.2887 57.5533 74.5262 57.507 74.7739ZM54.2206 68.9879V67.2537H56.1986V68.9879H54.2206ZM56.9713 68.9879V67.2537H58.9493V68.9879H56.9713Z" fill="#191919"/>
<path d="M68.3427 76.9936C67.3588 76.9936 66.6119 76.6891 66.102 76.0852C65.5971 76.6891 64.9327 76.9936 64.1085 76.9936H59.3798C59.3231 76.9936 59.2871 76.9781 59.2716 76.9471C59.251 76.9162 59.2458 76.8852 59.2458 76.8594V75.4813C59.2458 75.4555 59.2561 75.4245 59.2716 75.3935C59.2922 75.3626 59.3283 75.3471 59.3798 75.3471H60.7551V70.165H62.6816V75.3471H63.5367C63.9024 75.3471 64.2167 75.2026 64.4794 74.9135C64.7421 74.6245 64.8708 74.2425 64.8708 73.7625V70.165H66.7974V74.1496C66.8231 74.547 67.0291 74.8412 67.4155 75.0477C67.8018 75.249 68.2294 75.3522 68.6929 75.3522H69.548V69.592H71.4745V77.0039H68.3427V76.9936Z" fill="#191919"/>
<path d="M85.397 75.3882C85.4176 75.4192 85.4227 75.4502 85.4227 75.476V76.8541C85.4227 76.8799 85.4124 76.9109 85.397 76.9418C85.3764 76.9728 85.3403 76.9883 85.2888 76.9883H83.7641V79.44H79.6535C78.4894 79.44 77.6343 79.1355 77.0934 78.5316C76.5525 77.9277 76.2795 77.1638 76.2795 76.245V73.5559H78.206V75.9457C78.206 77.1844 78.8808 77.8038 80.2253 77.8038H81.8324V66.4331H83.7589V75.3366H85.2836C85.3403 75.3418 85.3764 75.3573 85.397 75.3882Z" fill="#191919"/>
<path d="M87.1877 75.3882C87.2083 75.4192 87.2135 75.4502 87.2135 75.476V76.8541C87.2135 76.8799 87.2032 76.9109 87.1877 76.9418C87.1671 76.9728 87.1311 76.9883 87.0796 76.9883H85.2921C85.2355 76.9883 85.1994 76.9728 85.184 76.9418C85.1634 76.9109 85.1582 76.8799 85.1582 76.8541V75.476C85.1582 75.4502 85.1685 75.4192 85.184 75.3882C85.2046 75.3573 85.2406 75.3418 85.2921 75.3418H87.0796C87.1311 75.3418 87.1671 75.3573 87.1877 75.3882Z" fill="#191919"/>
<path d="M88.973 75.3882C88.9936 75.4192 88.9988 75.4502 88.9988 75.476V76.8541C88.9988 76.8799 88.9885 76.9109 88.973 76.9418C88.9524 76.9728 88.9164 76.9883 88.8648 76.9883H87.0774C87.0208 76.9883 86.9847 76.9728 86.9692 76.9418C86.9486 76.9109 86.9435 76.8799 86.9435 76.8541V75.476C86.9435 75.4502 86.9538 75.4192 86.9692 75.3882C86.9899 75.3573 87.0259 75.3418 87.0774 75.3418H88.8648C88.9164 75.3418 88.9524 75.3573 88.973 75.3882Z" fill="#191919"/>
<path d="M90.7615 75.3882C90.7821 75.4192 90.7872 75.4502 90.7872 75.476V76.8541C90.7872 76.8799 90.7769 76.9109 90.7615 76.9418C90.7409 76.9728 90.7048 76.9883 90.6533 76.9883H88.8659C88.8092 76.9883 88.7731 76.9728 88.7577 76.9418C88.7371 76.9109 88.7319 76.8799 88.7319 76.8541V75.476C88.7319 75.4502 88.7422 75.4192 88.7577 75.3882C88.7783 75.3573 88.8144 75.3418 88.8659 75.3418H90.6533C90.7048 75.3418 90.7409 75.3573 90.7615 75.3882Z" fill="#191919"/>
<path d="M92.5499 75.3882C92.5705 75.4192 92.5757 75.4502 92.5757 75.476V76.8541C92.5757 76.8799 92.5654 76.9109 92.5499 76.9418C92.5293 76.9728 92.4933 76.9883 92.4417 76.9883H90.6543C90.5977 76.9883 90.5616 76.9728 90.5461 76.9418C90.5255 76.9109 90.5204 76.8799 90.5204 76.8541V75.476C90.5204 75.4502 90.5307 75.4192 90.5461 75.3882C90.5667 75.3573 90.6028 75.3418 90.6543 75.3418H92.4417C92.4933 75.3418 92.5293 75.3573 92.5499 75.3882Z" fill="#191919"/>
<path d="M96.8632 74.7742C97.0641 74.9962 97.2959 75.1458 97.5483 75.2233C97.8058 75.3007 98.1973 75.342 98.733 75.342C98.7897 75.342 98.8258 75.3575 98.8412 75.3884C98.8618 75.4194 98.867 75.4504 98.867 75.4762V76.8543C98.867 76.8801 98.8567 76.9111 98.8412 76.942C98.8206 76.973 98.7846 76.9885 98.733 76.9885C98.1561 76.9782 97.6925 76.9007 97.3422 76.7459C96.992 76.5911 96.6623 76.3278 96.3532 75.9407C96.1163 76.271 95.8124 76.5291 95.4518 76.7149C95.0912 76.9007 94.6894 76.9885 94.2464 76.9885H92.4332C92.3766 76.9885 92.3405 76.973 92.3251 76.942C92.3045 76.9111 92.2993 76.8801 92.2993 76.8543V75.4762C92.2993 75.4504 92.3096 75.4194 92.3251 75.3884C92.3457 75.3575 92.3817 75.342 92.4332 75.342H93.6695C94.0352 75.342 94.3495 75.1975 94.6122 74.9084C94.8749 74.6194 95.0036 74.2374 95.0036 73.7574V70.0205H96.9302V74.0568C96.9353 74.289 96.9096 74.5265 96.8632 74.7742ZM93.1389 79.9408V78.2066H95.117V79.9408H93.1389ZM95.8896 79.9408V78.2066H97.8676V79.9408H95.8896Z" fill="#191919"/>
<path d="M100.635 75.3882C100.655 75.4192 100.661 75.4502 100.661 75.476V76.8541C100.661 76.8799 100.65 76.9109 100.635 76.9418C100.614 76.9728 100.578 76.9883 100.527 76.9883H98.7391C98.6825 76.9883 98.6464 76.9728 98.631 76.9418C98.6104 76.9109 98.6052 76.8799 98.6052 76.8541V75.476C98.6052 75.4502 98.6155 75.4192 98.631 75.3882C98.6516 75.3573 98.6876 75.3418 98.7391 75.3418H100.527C100.578 75.3418 100.614 75.3573 100.635 75.3882Z" fill="#191919"/>
<path d="M102.423 75.3882C102.444 75.4192 102.449 75.4502 102.449 75.476V76.8541C102.449 76.8799 102.439 76.9109 102.423 76.9418C102.403 76.9728 102.367 76.9883 102.315 76.9883H100.528C100.471 76.9883 100.435 76.9728 100.42 76.9418C100.399 76.9109 100.394 76.8799 100.394 76.8541V75.476C100.394 75.4502 100.404 75.4192 100.42 75.3882C100.44 75.3573 100.476 75.3418 100.528 75.3418H102.315C102.367 75.3418 102.403 75.3573 102.423 75.3882Z" fill="#191919"/>
<path d="M104.212 75.3882C104.232 75.4192 104.238 75.4502 104.238 75.476V76.8541C104.238 76.8799 104.227 76.9109 104.212 76.9418C104.191 76.9728 104.155 76.9883 104.104 76.9883H102.316C102.26 76.9883 102.223 76.9728 102.208 76.9418C102.187 76.9109 102.182 76.8799 102.182 76.8541V75.476C102.182 75.4502 102.193 75.4192 102.208 75.3882C102.229 75.3573 102.265 75.3418 102.316 75.3418H104.104C104.155 75.3418 104.191 75.3573 104.212 75.3882Z" fill="#191919"/>
<path d="M106 75.3882C106.021 75.4192 106.026 75.4502 106.026 75.476V76.8541C106.026 76.8799 106.016 76.9109 106 76.9418C105.98 76.9728 105.944 76.9883 105.892 76.9883H104.105C104.048 76.9883 104.012 76.9728 103.996 76.9418C103.976 76.9109 103.971 76.8799 103.971 76.8541V75.476C103.971 75.4502 103.981 75.4192 103.996 75.3882C104.017 75.3573 104.053 75.3418 104.105 75.3418H105.892C105.944 75.3418 105.98 75.3573 106 75.3882Z" fill="#191919"/>
<path d="M105.89 76.9936C105.833 76.9936 105.797 76.9782 105.782 76.9472C105.761 76.9162 105.756 76.8852 105.756 76.8594V75.4813C105.756 75.4555 105.766 75.4245 105.782 75.3936C105.802 75.3626 105.838 75.3471 105.89 75.3471H107.265V66.4436H109.176V76.9988H105.89V76.9936Z" fill="#191919"/>
<path d="M117.193 76.3327C116.734 76.565 116.116 76.7301 115.343 76.8334C114.571 76.9366 113.757 76.9934 112.902 76.9934H111.089L110.347 75.3417H112.67C113.788 75.3417 114.663 75.2643 115.297 75.1094L113.345 70.0254H115.405L117.522 75.5533L117.193 76.3327Z" fill="#191919"/>
<path d="M56.2282 54.309C69.2662 54.309 79.8356 43.7183 79.8356 30.654C79.8356 17.5897 69.2662 6.99902 56.2282 6.99902C43.1901 6.99902 32.6207 17.5897 32.6207 30.654C32.6207 43.7183 43.1901 54.309 56.2282 54.309Z" fill="white"/>
<path d="M58.8041 54.309C71.8421 54.309 82.4116 43.7183 82.4116 30.654C82.4116 17.5897 71.8421 6.99902 58.8041 6.99902C45.7661 6.99902 35.1967 17.5897 35.1967 30.654C35.1967 43.7183 45.7661 54.309 58.8041 54.309Z" fill="white"/>
<path d="M71.4316 20.5117C71.7252 20.9659 71.9827 21.4563 72.2145 21.9879C73.2087 24.197 73.2602 26.5145 72.5957 28.8475C72.0342 30.8759 71.1122 32.7496 70.082 34.5664C68.5624 37.2194 66.775 39.6969 64.8433 42.0557C64.4621 42.5202 64.0706 42.9899 63.6792 43.4544C63.3959 43.7848 63.1125 43.9448 62.8292 43.9448V31.0927C65.5902 31.1289 67.903 28.832 67.9494 26.0242C68.0112 23.1854 65.7344 20.8679 62.8807 20.8059H62.8292V15.7271C63.2825 15.7271 63.7461 15.7425 64.2355 15.8096C65.2399 15.9438 67.1046 16.3722 68.9127 17.74C70.3447 18.8136 71.1431 20.0627 71.4316 20.5117Z" fill="#F69554"/>
<path d="M84.5333 7.05572C83.4361 5.67245 82.1947 4.42853 80.8142 3.3343C76.8118 -0.0464537 67.8077 0.165167 58.8088 0C49.8047 0.165167 40.8109 -0.0464537 36.7982 3.3343C35.4125 4.4337 34.1711 5.67245 33.0791 7.05572C29.7103 11.0713 29.9111 20.0936 29.7515 29.1107C29.9163 38.1329 29.7103 47.1448 33.0791 51.1656C34.1711 52.554 35.4125 53.7928 36.7982 54.8922C40.8057 58.2678 49.8047 58.0665 58.8088 58.2265C67.8077 58.0613 76.8067 58.2678 80.8142 54.8922C82.1999 53.7928 83.4413 52.554 84.5333 51.1656C87.9073 47.15 87.6961 38.1329 87.8609 29.1107C87.6961 20.0936 87.9073 11.0713 84.5333 7.05572ZM71.465 41.942C68.1992 45.2351 63.6611 47.2687 58.6542 47.2687H40.8315V43.4905H43.8603C45.1223 43.4853 46.4358 43.444 47.94 43.0518C52.3132 41.9162 54.8012 39.0103 55.6099 37.978C56.0478 37.4154 58.6594 33.8644 58.6594 29.1055C58.6594 22.4059 54.1058 16.7851 47.9297 15.1489V10.9475H58.6594C68.668 10.9475 76.7861 19.0768 76.7861 29.1003C76.7809 34.1224 74.7514 38.6542 71.465 41.942Z" fill="#4F2396"/>
</svg>
