<svg width="186" height="45" viewBox="0 0 186 45" fill="none" xmlns="http://www.w3.org/2000/svg">
<path d="M0 31.4468H5.64311C6.99485 31.4468 8.18373 31.7079 9.21789 32.2219C10.2521 32.736 11.0582 33.4622 11.6282 34.4005C12.1982 35.3388 12.4914 36.424 12.4914 37.6724C12.4914 38.9208 12.2064 40.006 11.6282 40.9443C11.0501 41.8827 10.2521 42.6089 9.21789 43.1229C8.18373 43.6369 6.99485 43.8981 5.64311 43.8981H0V31.4468ZM5.49654 41.5237C6.74242 41.5237 7.72772 41.181 8.46874 40.4874C9.20975 39.7939 9.57619 38.8555 9.57619 37.6724C9.57619 36.4893 9.20975 35.551 8.46874 34.8574C7.72772 34.1639 6.74242 33.8212 5.49654 33.8212H2.86635V41.54H5.49654V41.5237Z" fill="white"/>
<path d="M19.9778 31.4468H22.8523V41.5481H29.0817V43.8981H19.9778V31.4468Z" fill="white"/>
<path d="M36.0142 31.4468H38.8886V43.8899H36.0142V31.4468Z" fill="white"/>
<path d="M47.1624 31.4468H50.0368V41.5481H56.2662V43.8981H47.1624V31.4468Z" fill="white"/>
<path d="M74.7793 43.7023C73.8591 43.4331 73.1262 43.0904 72.5725 42.6579L73.5497 40.4875C74.079 40.8792 74.7141 41.1892 75.447 41.434C76.1799 41.6706 76.9127 41.793 77.6456 41.793C78.4599 41.793 79.0625 41.6706 79.4533 41.4258C79.8442 41.1811 80.0396 40.8628 80.0396 40.4549C80.0396 40.1611 79.9257 39.9163 79.6977 39.7205C79.4696 39.5247 79.1683 39.3697 78.81 39.2473C78.4518 39.133 77.9632 39.0025 77.3443 38.8556C76.3997 38.6272 75.6261 38.4069 75.0235 38.1784C74.421 37.9499 73.8998 37.5909 73.4682 37.0932C73.0366 36.5955 72.8168 35.9345 72.8168 35.1023C72.8168 34.3761 73.0122 33.7234 73.4031 33.1359C73.794 32.5484 74.3802 32.0833 75.1701 31.7406C75.96 31.3979 76.9209 31.2266 78.0527 31.2266C78.8426 31.2266 79.6162 31.3245 80.3735 31.5121C81.1308 31.6998 81.7904 31.9772 82.3604 32.3281L81.4728 34.5148C80.3247 33.8621 79.1765 33.5357 78.0283 33.5357C77.2222 33.5357 76.6277 33.6662 76.245 33.9273C75.8623 34.1884 75.6668 34.5311 75.6668 34.9554C75.6668 35.3797 75.8867 35.6979 76.3346 35.9101C76.7743 36.1141 77.4583 36.318 78.3703 36.522C79.3149 36.7505 80.0885 36.9708 80.6911 37.1993C81.2937 37.4277 81.8148 37.7786 82.2464 38.2681C82.678 38.7577 82.8979 39.4105 82.8979 40.2427C82.8979 40.9526 82.7024 41.6053 82.3034 42.1928C81.9044 42.7803 81.31 43.2454 80.5201 43.5881C79.7302 43.9308 78.7612 44.1021 77.6293 44.1021C76.644 44.1021 75.6994 43.9716 74.7793 43.7023Z" fill="white"/>
<path d="M92.7692 33.7886H88.7954V31.4387H99.6175V33.7886H95.6437V43.89H92.7692V33.7886Z" fill="white"/>
<path d="M114.659 41.2218H108.894L107.795 43.8899H104.847L110.384 31.4468H113.226L118.78 43.8899H115.759L114.659 41.2218ZM113.755 39.035L111.785 34.2699L109.814 39.035H113.755Z" fill="white"/>
<path d="M127.967 33.7886H123.993V31.4387H134.815V33.7886H130.841V43.89H127.967V33.7886Z" fill="white"/>
<path d="M141.683 31.4468H144.557V43.8899H141.683V31.4468Z" fill="white"/>
<path d="M155.353 43.2702C154.319 42.7153 153.505 41.9483 152.919 40.9692C152.332 39.9901 152.039 38.8885 152.039 37.6728C152.039 36.457 152.332 35.3555 152.919 34.3764C153.505 33.3972 154.311 32.6303 155.353 32.0754C156.388 31.5206 157.552 31.2432 158.839 31.2432C160.125 31.2432 161.29 31.5206 162.316 32.0754C163.342 32.6303 164.156 33.3972 164.751 34.3764C165.345 35.3555 165.638 36.457 165.638 37.6728C165.638 38.8885 165.345 39.9901 164.751 40.9692C164.156 41.9483 163.35 42.7153 162.316 43.2702C161.282 43.825 160.125 44.1024 158.839 44.1024C157.552 44.1024 156.396 43.825 155.353 43.2702ZM160.834 41.1487C161.428 40.8142 161.892 40.3409 162.226 39.7371C162.56 39.1333 162.731 38.4479 162.731 37.6728C162.731 36.8976 162.56 36.2123 162.226 35.6085C161.892 35.0047 161.428 34.5314 160.834 34.1969C160.239 33.8623 159.58 33.691 158.847 33.691C158.114 33.691 157.454 33.8623 156.86 34.1969C156.266 34.5314 155.801 35.0047 155.468 35.6085C155.134 36.2123 154.963 36.8976 154.963 37.6728C154.963 38.4479 155.134 39.1333 155.468 39.7371C155.801 40.3409 156.266 40.8142 156.86 41.1487C157.454 41.4832 158.114 41.6546 158.847 41.6546C159.58 41.6546 160.239 41.4832 160.834 41.1487Z" fill="white"/>
<path d="M184.526 31.4468V43.8899H182.164L175.968 36.3343V43.8899H173.126V31.4468H175.504L181.676 39.0024V31.4468H184.526Z" fill="white"/>
<path d="M15.4307 16.2373C15.4633 16.2863 15.4714 16.3352 15.4714 16.376V18.5546C15.4714 18.5954 15.4552 18.6443 15.4307 18.6933C15.3982 18.7423 15.3411 18.7667 15.2597 18.7667H12.8494V22.6425H6.35126C4.51094 22.6425 3.15919 22.1611 2.30418 21.2064C1.44916 20.2518 1.01758 19.0442 1.01758 17.5918V13.3407H4.06306V17.1185C4.06306 19.0768 5.12981 20.0559 7.25514 20.0559H9.79576V7.96367H12.8413V16.1557H15.2516C15.3412 16.1639 15.3982 16.1884 15.4307 16.2373ZM5.16237 7.98815V5.24658H8.28929V7.98815H5.16237Z" fill="white"/>
<path d="M18.2564 16.2373C18.289 16.2862 18.2972 16.3352 18.2972 16.376V18.5545C18.2972 18.5953 18.2809 18.6443 18.2564 18.6932C18.2239 18.7422 18.1669 18.7667 18.0854 18.7667H15.2598C15.1702 18.7667 15.1132 18.7422 15.0888 18.6932C15.0562 18.6443 15.0481 18.5953 15.0481 18.5545V16.376C15.0481 16.3352 15.0644 16.2862 15.0888 16.2373C15.1214 16.1883 15.1784 16.1638 15.2598 16.1638H18.0854C18.1669 16.1638 18.2239 16.1883 18.2564 16.2373Z" fill="white"/>
<path d="M21.0838 16.2373C21.1164 16.2862 21.1246 16.3352 21.1246 16.376V18.5545C21.1246 18.5953 21.1083 18.6443 21.0838 18.6932C21.0513 18.7422 20.9943 18.7667 20.9128 18.7667H18.0872C17.9976 18.7667 17.9406 18.7422 17.9162 18.6932C17.8836 18.6443 17.8755 18.5953 17.8755 18.5545V16.376C17.8755 16.3352 17.8918 16.2862 17.9162 16.2373C17.9488 16.1883 18.0058 16.1638 18.0872 16.1638H20.9128C20.9943 16.1638 21.0513 16.1883 21.0838 16.2373Z" fill="white"/>
<path d="M23.9059 16.2373C23.9384 16.2862 23.9466 16.3352 23.9466 16.376V18.5545C23.9466 18.5953 23.9303 18.6443 23.9059 18.6932C23.8733 18.7422 23.8163 18.7667 23.7349 18.7667H20.9092C20.8197 18.7667 20.7627 18.7422 20.7382 18.6932C20.7057 18.6443 20.6975 18.5953 20.6975 18.5545V16.376C20.6975 16.3352 20.7138 16.2862 20.7382 16.2373C20.7708 16.1883 20.8278 16.1638 20.9092 16.1638H23.7349C23.8163 16.1638 23.8733 16.1883 23.9059 16.2373Z" fill="white"/>
<path d="M26.7335 16.2373C26.7661 16.2862 26.7742 16.3352 26.7742 16.376V18.5545C26.7742 18.5953 26.7579 18.6443 26.7335 18.6932C26.7009 18.7422 26.6439 18.7667 26.5625 18.7667H23.7369C23.6473 18.7667 23.5903 18.7422 23.5659 18.6932C23.5333 18.6443 23.5251 18.5953 23.5251 18.5545V16.376C23.5251 16.3352 23.5414 16.2862 23.5659 16.2373C23.5984 16.1883 23.6554 16.1638 23.7369 16.1638H26.5625C26.6439 16.1638 26.7009 16.1883 26.7335 16.2373Z" fill="white"/>
<path d="M29.5604 16.2373C29.593 16.2862 29.6011 16.3352 29.6011 16.376V18.5545C29.6011 18.5953 29.5848 18.6443 29.5604 18.6932C29.5278 18.7422 29.4708 18.7667 29.3894 18.7667H26.5638C26.4742 18.7667 26.4172 18.7422 26.3928 18.6932C26.3602 18.6443 26.3521 18.5953 26.3521 18.5545V16.376C26.3521 16.3352 26.3683 16.2862 26.3928 16.2373C26.4253 16.1883 26.4823 16.1638 26.5638 16.1638H29.3894C29.4708 16.1638 29.5278 16.1883 29.5604 16.2373Z" fill="white"/>
<path d="M48.3577 15.2418C48.6915 15.609 49.058 15.8456 49.457 15.968C49.856 16.0904 50.483 16.1557 51.338 16.1557C51.4276 16.1557 51.4846 16.1801 51.509 16.2291C51.5416 16.278 51.5497 16.327 51.5497 16.3678V18.5464C51.5497 18.5872 51.5334 18.6361 51.509 18.6851C51.4764 18.734 51.4194 18.7585 51.338 18.7585C50.4097 18.7422 49.6687 18.6116 49.1068 18.3668C48.5449 18.1221 48.0156 17.6815 47.5108 17.0369C47.1036 17.5754 46.5906 17.9915 45.9555 18.3016C45.3285 18.6035 44.6363 18.7585 43.879 18.7585C42.8937 18.7585 42.1038 18.6361 41.5175 18.3913C40.9312 18.1465 40.4345 17.7794 40.0274 17.3061C39.213 18.2771 38.1544 18.7667 36.8516 18.7667H29.3763C29.2867 18.7667 29.2297 18.7422 29.2053 18.6932C29.1727 18.6443 29.1646 18.5953 29.1646 18.5545V16.3759C29.1646 16.3352 29.1808 16.2862 29.2053 16.2372C29.2378 16.1883 29.2948 16.1638 29.3763 16.1638H31.5505V7.97174H34.5959V16.1638H35.9477C36.5258 16.1638 37.0226 15.9353 37.4379 15.4784C37.8532 15.0215 38.0567 14.4177 38.0567 13.6589V7.97174H41.1022V14.1566C41.1022 14.8093 41.3465 15.3071 41.827 15.6498C42.3155 15.9925 42.853 16.1638 43.4474 16.1638C44.0256 16.1638 44.506 15.9598 44.8806 15.5437C45.2552 15.1276 45.4425 14.4993 45.4425 13.6589V7.05789H48.488V14.1403C48.488 14.4095 48.4472 14.7767 48.3577 15.2418ZM35.8825 6.11956V3.378H39.0095V6.11956H35.8825ZM38.187 2.48046V0H41.0127V2.48046H38.187ZM40.2309 6.11956V3.378H43.3578V6.11956H40.2309Z" fill="white"/>
<path d="M54.3463 16.2373C54.3789 16.2862 54.387 16.3352 54.387 16.376V18.5545C54.387 18.5953 54.3707 18.6443 54.3463 18.6932C54.3137 18.7422 54.2567 18.7667 54.1753 18.7667H51.3497C51.2601 18.7667 51.2031 18.7422 51.1786 18.6932C51.1461 18.6443 51.1379 18.5953 51.1379 18.5545V16.376C51.1379 16.3352 51.1542 16.2862 51.1786 16.2373C51.2112 16.1883 51.2682 16.1638 51.3497 16.1638H54.1753C54.2567 16.1638 54.3137 16.1883 54.3463 16.2373Z" fill="white"/>
<path d="M57.1734 16.2373C57.206 16.2862 57.2141 16.3352 57.2141 16.376V18.5545C57.2141 18.5953 57.1979 18.6443 57.1734 18.6932C57.1409 18.7422 57.0839 18.7667 57.0024 18.7667H54.1768C54.0872 18.7667 54.0302 18.7422 54.0058 18.6932C53.9732 18.6443 53.9651 18.5953 53.9651 18.5545V16.376C53.9651 16.3352 53.9814 16.2862 54.0058 16.2373C54.0384 16.1883 54.0954 16.1638 54.1768 16.1638H57.0024C57.0839 16.1638 57.1409 16.1883 57.1734 16.2373Z" fill="white"/>
<path d="M59.9957 16.2373C60.0283 16.2862 60.0364 16.3352 60.0364 16.376V18.5545C60.0364 18.5953 60.0201 18.6443 59.9957 18.6932C59.9631 18.7422 59.9061 18.7667 59.8247 18.7667H56.9991C56.9095 18.7667 56.8525 18.7422 56.8281 18.6932C56.7955 18.6443 56.7874 18.5953 56.7874 18.5545V16.376C56.7874 16.3352 56.8036 16.2862 56.8281 16.2373C56.8606 16.1883 56.9176 16.1638 56.9991 16.1638H59.8247C59.9061 16.1638 59.9631 16.1883 59.9957 16.2373Z" fill="white"/>
<path d="M62.8229 16.2373C62.8554 16.2862 62.8636 16.3352 62.8636 16.376V18.5545C62.8636 18.5953 62.8473 18.6443 62.8229 18.6932C62.7903 18.7422 62.7333 18.7667 62.6519 18.7667H59.8262C59.7367 18.7667 59.6796 18.7422 59.6552 18.6932C59.6226 18.6443 59.6145 18.5953 59.6145 18.5545V16.376C59.6145 16.3352 59.6308 16.2862 59.6552 16.2373C59.6878 16.1883 59.7448 16.1638 59.8262 16.1638H62.6519C62.7333 16.1638 62.7903 16.1883 62.8229 16.2373Z" fill="white"/>
<path d="M69.6466 15.2665C69.9642 15.6174 70.3306 15.854 70.7296 15.9764C71.1368 16.0988 71.7556 16.1641 72.6025 16.1641C72.6921 16.1641 72.7491 16.1885 72.7735 16.2375C72.8061 16.2865 72.8142 16.3354 72.8142 16.3762V18.5548C72.8142 18.5956 72.798 18.6445 72.7735 18.6935C72.741 18.7424 72.6839 18.7669 72.6025 18.7669C71.6905 18.7506 70.9576 18.6282 70.4039 18.3834C69.8502 18.1468 69.329 17.7225 68.8404 17.1106C68.4659 17.6328 67.9854 18.0407 67.4154 18.3345C66.8454 18.6282 66.2102 18.7669 65.5099 18.7669H62.6436C62.554 18.7669 62.497 18.7424 62.4726 18.6935C62.44 18.6445 62.4319 18.5956 62.4319 18.5548V16.3762C62.4319 16.3354 62.4482 16.2865 62.4726 16.2375C62.5052 16.1885 62.5622 16.1641 62.6436 16.1641H64.5979C65.1761 16.1641 65.6728 15.9356 66.0881 15.4787C66.5034 15.0218 66.707 14.4179 66.707 13.6591V7.75171H69.7525V14.1324C69.7525 14.4995 69.7199 14.8749 69.6466 15.2665ZM63.7592 23.4341V20.6925H66.8861V23.4341H63.7592ZM68.1076 23.4341V20.6925H71.2345V23.4341H68.1076Z" fill="white"/>
<path d="M75.6087 16.2373C75.6413 16.2862 75.6495 16.3352 75.6495 16.376V18.5545C75.6495 18.5953 75.6332 18.6443 75.6087 18.6932C75.5762 18.7422 75.5192 18.7667 75.4377 18.7667H72.6121C72.5225 18.7667 72.4655 18.7422 72.4411 18.6932C72.4085 18.6443 72.4004 18.5953 72.4004 18.5545V16.376C72.4004 16.3352 72.4167 16.2862 72.4411 16.2373C72.4737 16.1883 72.5307 16.1638 72.6121 16.1638H75.4377C75.5192 16.1638 75.5762 16.1883 75.6087 16.2373Z" fill="white"/>
<path d="M78.4313 16.2373C78.4638 16.2862 78.472 16.3352 78.472 16.376V18.5545C78.472 18.5953 78.4557 18.6443 78.4313 18.6932C78.3987 18.7422 78.3417 18.7667 78.2603 18.7667H75.4346C75.3451 18.7667 75.2881 18.7422 75.2636 18.6932C75.2311 18.6443 75.2229 18.5953 75.2229 18.5545V16.376C75.2229 16.3352 75.2392 16.2862 75.2636 16.2373C75.2962 16.1883 75.3532 16.1638 75.4346 16.1638H78.2603C78.3417 16.1638 78.3987 16.1883 78.4313 16.2373Z" fill="white"/>
<path d="M81.2584 16.2373C81.291 16.2862 81.2991 16.3352 81.2991 16.376V18.5545C81.2991 18.5953 81.2828 18.6443 81.2584 18.6932C81.2258 18.7422 81.1688 18.7667 81.0874 18.7667H78.2618C78.1722 18.7667 78.1152 18.7422 78.0908 18.6932C78.0582 18.6443 78.05 18.5953 78.05 18.5545V16.376C78.05 16.3352 78.0663 16.2862 78.0908 16.2373C78.1234 16.1883 78.1803 16.1638 78.2618 16.1638H81.0874C81.1688 16.1638 81.2258 16.1883 81.2584 16.2373Z" fill="white"/>
<path d="M84.0858 16.2373C84.1184 16.2862 84.1265 16.3352 84.1265 16.376V18.5545C84.1265 18.5953 84.1102 18.6443 84.0858 18.6932C84.0532 18.7422 83.9962 18.7667 83.9148 18.7667H81.0892C80.9996 18.7667 80.9426 18.7422 80.9182 18.6932C80.8856 18.6443 80.8774 18.5953 80.8774 18.5545V16.376C80.8774 16.3352 80.8937 16.2862 80.9182 16.2373C80.9507 16.1883 81.0077 16.1638 81.0892 16.1638H83.9148C83.9962 16.1638 84.0532 16.1883 84.0858 16.2373Z" fill="white"/>
<path d="M90.9091 15.266C91.2266 15.6168 91.5931 15.8534 91.9921 15.9758C92.3992 16.0982 93.0181 16.1635 93.865 16.1635C93.9546 16.1635 94.0116 16.188 94.036 16.2369C94.0686 16.2859 94.0767 16.3348 94.0767 16.3756V18.5542C94.0767 18.595 94.0604 18.644 94.036 18.6929C94.0034 18.7419 93.9464 18.7664 93.865 18.7664C92.953 18.75 92.2201 18.6276 91.6664 18.3829C91.1126 18.1462 90.5915 17.7219 90.1029 17.11C89.7283 17.6322 89.2479 18.0402 88.6779 18.3339C88.1079 18.6276 87.4727 18.7664 86.7724 18.7664H83.9061C83.8165 18.7664 83.7595 18.7419 83.7351 18.6929C83.7025 18.644 83.6943 18.595 83.6943 18.5542V16.3756C83.6943 16.3348 83.7106 16.2859 83.7351 16.2369C83.7676 16.188 83.8246 16.1635 83.9061 16.1635H85.8604C86.4385 16.1635 86.9353 15.935 87.3506 15.4781C87.7659 15.0212 87.9694 14.4174 87.9694 13.6585V7.75113H91.0149V14.1318C91.0149 14.499 90.9824 14.8743 90.9091 15.266ZM85.7138 6.11925V3.37769H88.8407V6.11925H85.7138ZM90.0622 6.11925V3.37769H93.1891V6.11925H90.0622Z" fill="white"/>
<path d="M108.039 18.7751C106.483 18.7751 105.302 18.2937 104.496 17.339C103.698 18.2937 102.648 18.7751 101.345 18.7751H93.8697C93.7801 18.7751 93.7231 18.7506 93.6987 18.7016C93.6661 18.6527 93.658 18.6037 93.658 18.5629V16.3844C93.658 16.3436 93.6742 16.2946 93.6987 16.2456C93.7312 16.1967 93.7882 16.1722 93.8697 16.1722H96.0439V7.98016H99.0893V16.1722H100.441C101.019 16.1722 101.516 15.9438 101.931 15.4868C102.347 15.0299 102.55 14.4261 102.55 13.6673V7.98016H105.596V14.2792C105.636 14.9075 105.962 15.3726 106.573 15.699C107.184 16.0172 107.859 16.1804 108.592 16.1804H109.944V7.07446H112.989V18.7914H108.039V18.7751Z" fill="white"/>
<path d="M134.999 16.2372C135.031 16.2861 135.039 16.3351 135.039 16.3759V18.5544C135.039 18.5952 135.023 18.6442 134.999 18.6931C134.966 18.7421 134.909 18.7666 134.828 18.7666H132.417V22.6423H125.919C124.079 22.6423 122.727 22.1609 121.872 21.2062C121.017 20.2516 120.585 19.044 120.585 17.5916V13.3406H123.631V17.1184C123.631 19.0766 124.698 20.0558 126.823 20.0558H129.364V2.08057H132.409V16.1556H134.819C134.909 16.1637 134.966 16.1882 134.999 16.2372Z" fill="white"/>
<path d="M137.829 16.2373C137.862 16.2862 137.87 16.3352 137.87 16.376V18.5545C137.87 18.5953 137.854 18.6443 137.829 18.6932C137.797 18.7422 137.74 18.7667 137.658 18.7667H134.833C134.743 18.7667 134.686 18.7422 134.662 18.6932C134.629 18.6443 134.621 18.5953 134.621 18.5545V16.376C134.621 16.3352 134.637 16.2862 134.662 16.2373C134.694 16.1883 134.751 16.1638 134.833 16.1638H137.658C137.74 16.1638 137.797 16.1883 137.829 16.2373Z" fill="white"/>
<path d="M140.652 16.2373C140.685 16.2862 140.693 16.3352 140.693 16.376V18.5545C140.693 18.5953 140.676 18.6443 140.652 18.6932C140.619 18.7422 140.562 18.7667 140.481 18.7667H137.655C137.566 18.7667 137.509 18.7422 137.484 18.6932C137.452 18.6443 137.444 18.5953 137.444 18.5545V16.376C137.444 16.3352 137.46 16.2862 137.484 16.2373C137.517 16.1883 137.574 16.1638 137.655 16.1638H140.481C140.562 16.1638 140.619 16.1883 140.652 16.2373Z" fill="white"/>
<path d="M143.479 16.2373C143.511 16.2862 143.52 16.3352 143.52 16.376V18.5545C143.52 18.5953 143.503 18.6443 143.479 18.6932C143.446 18.7422 143.389 18.7667 143.308 18.7667H140.482C140.393 18.7667 140.336 18.7422 140.311 18.6932C140.279 18.6443 140.271 18.5953 140.271 18.5545V16.376C140.271 16.3352 140.287 16.2862 140.311 16.2373C140.344 16.1883 140.401 16.1638 140.482 16.1638H143.308C143.389 16.1638 143.446 16.1883 143.479 16.2373Z" fill="white"/>
<path d="M146.306 16.2373C146.339 16.2862 146.347 16.3352 146.347 16.376V18.5545C146.347 18.5953 146.331 18.6443 146.306 18.6932C146.274 18.7422 146.217 18.7667 146.136 18.7667H143.31C143.22 18.7667 143.163 18.7422 143.139 18.6932C143.106 18.6443 143.098 18.5953 143.098 18.5545V16.376C143.098 16.3352 143.114 16.2862 143.139 16.2373C143.171 16.1883 143.228 16.1638 143.31 16.1638H146.136C146.217 16.1638 146.274 16.1883 146.306 16.2373Z" fill="white"/>
<path d="M153.125 15.2665C153.443 15.6174 153.809 15.854 154.208 15.9764C154.615 16.0988 155.234 16.1641 156.081 16.1641C156.171 16.1641 156.228 16.1885 156.252 16.2375C156.285 16.2865 156.293 16.3354 156.293 16.3762V18.5548C156.293 18.5956 156.276 18.6445 156.252 18.6935C156.219 18.7424 156.162 18.7669 156.081 18.7669C155.169 18.7506 154.436 18.6282 153.882 18.3834C153.329 18.1386 152.808 17.7225 152.319 17.1106C151.944 17.6328 151.464 18.0407 150.894 18.3345C150.324 18.6282 149.689 18.7669 148.988 18.7669H146.122C146.033 18.7669 145.976 18.7424 145.951 18.6935C145.919 18.6445 145.91 18.5956 145.91 18.5548V16.3762C145.91 16.3354 145.927 16.2865 145.951 16.2375C145.984 16.1885 146.041 16.1641 146.122 16.1641H148.076C148.655 16.1641 149.151 15.9356 149.567 15.4787C149.982 15.0218 150.185 14.4179 150.185 13.6591V7.75171H153.231V14.1324C153.239 14.4995 153.198 14.8749 153.125 15.2665ZM147.238 23.4341V20.6925H150.365V23.4341H147.238ZM151.586 23.4341V20.6925H154.713V23.4341H151.586Z" fill="white"/>
<path d="M159.087 16.2373C159.12 16.2862 159.128 16.3352 159.128 16.376V18.5545C159.128 18.5953 159.112 18.6443 159.087 18.6932C159.055 18.7422 158.998 18.7667 158.916 18.7667H156.091C156.001 18.7667 155.944 18.7422 155.92 18.6932C155.887 18.6443 155.879 18.5953 155.879 18.5545V16.376C155.879 16.3352 155.895 16.2862 155.92 16.2373C155.952 16.1883 156.009 16.1638 156.091 16.1638H158.916C158.998 16.1638 159.055 16.1883 159.087 16.2373Z" fill="white"/>
<path d="M161.914 16.2373C161.947 16.2862 161.955 16.3352 161.955 16.376V18.5545C161.955 18.5953 161.939 18.6443 161.914 18.6932C161.882 18.7422 161.825 18.7667 161.743 18.7667H158.918C158.828 18.7667 158.771 18.7422 158.747 18.6932C158.714 18.6443 158.706 18.5953 158.706 18.5545V16.376C158.706 16.3352 158.722 16.2862 158.747 16.2373C158.779 16.1883 158.836 16.1638 158.918 16.1638H161.743C161.825 16.1638 161.882 16.1883 161.914 16.2373Z" fill="white"/>
<path d="M164.742 16.2373C164.774 16.2862 164.783 16.3352 164.783 16.376V18.5545C164.783 18.5953 164.766 18.6443 164.742 18.6932C164.709 18.7422 164.652 18.7667 164.571 18.7667H161.745C161.656 18.7667 161.599 18.7422 161.574 18.6932C161.542 18.6443 161.533 18.5953 161.533 18.5545V16.376C161.533 16.3352 161.55 16.2862 161.574 16.2373C161.607 16.1883 161.664 16.1638 161.745 16.1638H164.571C164.652 16.1638 164.709 16.1883 164.742 16.2373Z" fill="white"/>
<path d="M167.569 16.2373C167.602 16.2862 167.61 16.3352 167.61 16.376V18.5545C167.61 18.5953 167.594 18.6443 167.569 18.6932C167.537 18.7422 167.48 18.7667 167.398 18.7667H164.573C164.483 18.7667 164.426 18.7422 164.402 18.6932C164.369 18.6443 164.361 18.5953 164.361 18.5545V16.376C164.361 16.3352 164.377 16.2862 164.402 16.2373C164.434 16.1883 164.491 16.1638 164.573 16.1638H167.398C167.48 16.1638 167.537 16.1883 167.569 16.2373Z" fill="white"/>
<path d="M167.395 18.775C167.305 18.775 167.248 18.7505 167.224 18.7016C167.191 18.6526 167.183 18.6037 167.183 18.5629V16.3843C167.183 16.3435 167.199 16.2946 167.224 16.2456C167.256 16.1966 167.313 16.1722 167.395 16.1722H169.569V2.09717H172.59V18.7832H167.395V18.775Z" fill="white"/>
<path d="M185.263 17.7303C184.538 18.0975 183.561 18.3586 182.339 18.5218C181.118 18.685 179.831 18.7747 178.479 18.7747H175.613L174.44 16.1637H178.113C179.88 16.1637 181.264 16.0413 182.266 15.7966L179.18 7.75952H182.437L185.784 16.4983L185.263 17.7303Z" fill="white"/>
</svg>
