<svg width="11" height="11" viewBox="0 0 11 11" fill="none" xmlns="http://www.w3.org/2000/svg">
<g clip-path="url(#clip0_455_84)">
<path fill-rule="evenodd" clip-rule="evenodd" d="M5.5 3.09375C4.93041 3.09375 4.46875 3.55541 4.46875 4.125C4.46875 4.69459 4.93041 5.15625 5.5 5.15625C6.06959 5.15625 6.53125 4.69459 6.53125 4.125C6.53125 3.55541 6.06959 3.09375 5.5 3.09375ZM5.5 5.84375C4.55091 5.84375 3.78125 5.07444 3.78125 4.125C3.78125 3.17556 4.55091 2.40625 5.5 2.40625C6.44909 2.40625 7.21875 3.17556 7.21875 4.125C7.21875 5.07444 6.44909 5.84375 5.5 5.84375ZM5.5 0C3.22197 0 1.375 1.84697 1.375 4.125C1.375 5.84994 4.81422 11.0038 5.5 11C6.17513 11.0038 9.625 5.82656 9.625 4.125C9.625 1.84697 7.77803 0 5.5 0Z" fill="#005DBA"/>
</g>
<defs>
<clipPath id="clip0_455_84">
<rect width="11" height="11" fill="white"/>
</clipPath>
</defs>
</svg>
