<svg width="20" height="20" viewBox="0 0 20 20" fill="none" xmlns="http://www.w3.org/2000/svg">
<path d="M8.2232 13.6602C7.91692 13.6602 7.66663 13.9071 7.66663 14.2167V15.8964C7.66663 16.2027 7.91366 16.453 8.2232 16.453C8.53279 16.453 8.77977 16.206 8.77977 15.8964V14.2167C8.77646 13.9072 8.52948 13.6602 8.2232 13.6602Z" fill="#F69554"/>
<path d="M16.4205 4.99189V0.552385C16.3612 -0.0569175 15.8145 -0.0470342 15.6333 0.0484878L6.98151 4.09276H1.64288C1.3366 4.09276 1.0863 4.33979 1.0863 4.64933V11.3383C1.0863 11.6446 1.33334 11.8949 1.64288 11.8949H2.14346L3.67818 19.5554C3.73086 19.8156 3.95813 20 4.22161 20H7.27791H7.28122C7.5875 20 7.83779 19.753 7.83779 19.4434C7.83779 19.3809 6.32941 11.8916 6.32941 11.8916H6.9782L15.6267 15.9359C16.2821 16.0973 16.4139 15.6198 16.4139 15.4321V10.9925C17.8366 10.7291 18.9136 9.48417 18.9136 7.98893C18.9202 6.49696 17.8432 5.25538 16.4205 4.99189ZM6.59947 18.8868H4.67941L3.27643 11.8916H5.1965L6.59947 18.8868ZM6.65877 10.7817H2.19945V5.20265H6.65872L6.65877 10.7817ZM15.3106 14.556L7.77192 11.032V9.27988H7.99919C8.30547 9.27988 8.55576 9.03285 8.55576 8.72331C8.55576 8.41702 8.30878 8.16673 7.99919 8.16673H7.77192V7.05684H9.10903C9.41531 7.05684 9.6656 6.80986 9.6656 6.50027C9.6656 6.19399 9.41857 5.94369 9.10903 5.94369H7.77192V4.94247L15.3106 1.4185V14.556ZM16.4205 9.85627V6.13143C17.2241 6.37184 17.8103 7.11614 17.8103 7.99219C17.8103 8.8715 17.2241 9.61586 16.4205 9.85627Z" fill="#F69554"/>
</svg>
