<svg width="22" height="22" viewBox="0 0 22 22" fill="none" xmlns="http://www.w3.org/2000/svg">
<path d="M19.8811 10.9671C19.846 10.7073 19.6941 10.4879 19.4741 10.347C19.3283 10.2535 19.1475 10.2528 18.9949 10.3181C18.9928 9.75714 18.9949 9.19614 18.9804 8.63582C18.966 8.00676 19.0004 7.37839 19.0238 6.7507C19.032 6.54376 18.8993 6.36501 18.7213 6.27701C18.7054 6.04051 18.6889 5.80401 18.6683 5.5682C18.6553 5.42726 18.6436 5.28632 18.6236 5.14676C18.6195 5.11926 18.6161 5.09176 18.6119 5.06426C18.6016 4.99139 18.5686 4.86557 18.5274 4.80989C18.4676 4.73151 18.4167 4.6442 18.3239 4.59951C18.2558 4.5672 18.1905 4.53557 18.1163 4.52526C18.0441 4.51426 17.9698 4.51426 17.8969 4.50601C17.8811 4.27432 17.8688 4.04264 17.8584 3.81095C17.8846 3.75114 17.899 3.68651 17.899 3.61914C17.899 3.34757 17.6728 3.12551 17.404 3.12276C16.8506 3.11864 16.2971 3.12689 15.7437 3.10351C15.2459 3.08289 14.7489 3.05401 14.2491 3.0437C13.1993 3.02445 12.1474 3.03201 11.0962 3.02445C10.0649 3.01757 9.03507 2.99695 8.00176 2.9942C7.49782 2.99351 6.99388 2.98389 6.49063 2.98389C6.00526 2.98389 5.5192 2.99282 5.03451 3.02651C4.49963 3.06432 3.95788 3.1867 3.46563 3.4012C2.98507 3.60882 2.55332 4.0227 2.40413 4.53282C2.36357 4.67239 2.34295 4.8147 2.32438 4.95976C2.30857 5.07732 2.29482 5.19764 2.30857 5.31589C2.32576 5.4637 2.34982 5.6067 2.38901 5.74832C2.22745 5.83014 2.11401 5.99514 2.11195 6.18557C2.10507 6.7342 2.10782 7.28214 2.09751 7.82939C2.08857 8.32714 2.07688 8.8242 2.07138 9.32057C2.06245 10.3257 2.05695 11.3294 2.07138 12.3353C2.0817 13.0338 2.09751 13.7323 2.10026 14.4308C2.10438 15.132 2.11332 15.8339 2.09751 16.5366C2.09545 16.6239 2.12638 16.7023 2.16901 16.7738C2.27282 17.0419 2.38145 17.3114 2.52238 17.5616C2.58013 17.6634 2.65301 17.7576 2.72313 17.8518C2.78845 17.9377 2.85513 18.0229 2.92182 18.1075C3.02357 18.2368 3.1762 18.3385 3.31232 18.4258C3.6162 18.6245 3.97026 18.751 4.32707 18.8136C4.63645 18.8672 4.94857 18.9194 5.26207 18.9387C5.83132 18.9724 6.40332 18.9765 6.97463 18.9868C7.51776 18.9958 8.06088 19.0061 8.60263 19.0054C9.15607 19.0054 9.70813 18.9992 10.2609 19.0026C10.8157 19.0081 11.3691 19.0246 11.9239 19.0129C12.4959 19.0026 13.0666 18.9793 13.6379 18.971C14.1872 18.9621 14.7399 18.9648 15.2893 18.9648C15.8138 18.9648 16.3391 18.9648 16.8623 18.9579C17.1077 18.9552 17.3531 18.9579 17.5999 18.9607C17.8584 18.9634 18.1169 18.9662 18.3768 18.9621C18.5535 18.96 18.7075 18.872 18.812 18.7428C18.9447 18.6479 19.0389 18.5014 19.0354 18.3303C19.0238 17.739 19.0299 17.1478 19.0238 16.5558C19.0148 15.8766 19.0251 15.1987 19.0368 14.5201C19.1998 14.4954 19.3455 14.4479 19.4809 14.3345C19.7828 14.0815 19.8543 13.6477 19.8859 13.2771C19.9058 13.0475 19.9058 12.8165 19.9148 12.5855C19.9292 12.2328 19.9464 11.8767 19.934 11.5226C19.9271 11.337 19.9058 11.1514 19.8811 10.9671ZM5.29576 6.0742C5.29782 6.02401 5.30057 5.97314 5.28957 5.92157C5.28682 5.90851 5.28476 5.89476 5.28201 5.8817C5.26826 5.67132 5.27513 5.45957 5.2772 5.24782C6.28301 5.2767 7.28951 5.27739 8.2967 5.2822C8.81507 5.28495 9.33345 5.29801 9.85182 5.31107C10.3324 5.32414 10.8116 5.3592 11.2921 5.37501C11.7919 5.3922 12.2931 5.39976 12.795 5.41007C13.2962 5.42039 13.7988 5.4307 14.2999 5.43482C14.8101 5.43895 15.3209 5.44376 15.8303 5.44514C16.2793 5.44651 16.7289 5.46576 17.1778 5.46851C17.3442 5.4692 17.5099 5.47539 17.6749 5.48776C17.7024 5.73045 17.7203 5.97382 17.7278 6.21857C17.4604 6.22407 17.1923 6.22132 16.9262 6.21857C16.4264 6.2117 15.9259 6.19657 15.4261 6.19382C14.4223 6.18832 13.4206 6.15464 12.4169 6.14707C11.3492 6.13951 10.2822 6.14845 9.21451 6.11064C8.5277 6.08726 7.83951 6.08864 7.15338 6.09001C6.78626 6.09001 6.41982 6.09139 6.05407 6.08726C5.80107 6.08382 5.54807 6.08039 5.29576 6.0742ZM18.8498 13.4573C18.8498 13.4573 18.8519 13.4552 18.8533 13.4538C18.8526 13.4552 18.8512 13.4566 18.8498 13.4573ZM18.7164 11.2923C18.7522 11.2951 18.7873 11.293 18.8209 11.2875C18.8416 11.5893 18.8381 11.8918 18.8326 12.195C18.8299 12.3868 18.8264 12.5786 18.8223 12.7718C18.8203 12.9595 18.823 13.1472 18.8058 13.3335C18.7976 13.3768 18.7879 13.4194 18.7763 13.4621C18.5858 13.4717 18.3933 13.4655 18.2036 13.4607C17.9726 13.4552 17.7416 13.4531 17.5106 13.4531C16.9984 13.4531 16.4841 13.4545 15.9761 13.3968C15.8214 13.3693 15.6715 13.3301 15.5244 13.2758C15.3766 13.2056 15.2411 13.1245 15.1098 13.0296C15.0603 12.9863 15.0129 12.9416 14.9675 12.8942C14.94 12.8516 14.9159 12.8083 14.8926 12.7636C14.8685 12.6989 14.8465 12.6336 14.8286 12.5656C14.8176 12.4123 14.8224 12.2624 14.8389 12.1098C14.8664 11.9461 14.9001 11.7839 14.9565 11.6271C14.9751 11.5907 14.995 11.5563 15.0163 11.5226C15.0424 11.4965 15.0686 11.4711 15.0961 11.4477C15.1483 11.4154 15.2019 11.3858 15.2576 11.3583C15.3931 11.3095 15.5306 11.2724 15.6736 11.2469C15.897 11.2243 16.1198 11.2194 16.3446 11.2139C16.5845 11.2071 16.8251 11.1981 17.0651 11.1981C17.6164 11.1954 18.1685 11.2504 18.7164 11.2923ZM3.36526 5.01889C3.38107 4.93364 3.40032 4.85045 3.42782 4.76864C3.44707 4.73014 3.46838 4.6937 3.49107 4.65795C3.55088 4.59057 3.61482 4.52732 3.68288 4.4682C3.7702 4.40839 3.86095 4.35889 3.9572 4.31282C4.28376 4.18839 4.62682 4.1107 4.97057 4.05845C5.44013 4.00826 5.90763 3.98557 6.37926 3.98214C6.8777 3.97939 7.37682 3.97457 7.87526 3.9732C8.34001 3.9732 8.80476 3.97595 9.27088 3.9787C9.82845 3.98145 10.3874 3.98489 10.9456 3.98145C11.9927 3.97526 13.0398 3.97251 14.0868 3.99314C14.588 4.00345 15.0878 4.01376 15.5897 4.04676C16.0029 4.07564 16.4168 4.08526 16.8306 4.09626C16.8403 4.21795 16.8485 4.34032 16.8623 4.4627C16.8162 4.4627 16.7701 4.46132 16.7241 4.46201C15.7451 4.4682 14.7661 4.48264 13.7864 4.4682C13.268 4.46201 12.7496 4.45101 12.2326 4.43451C11.7431 4.42007 11.255 4.41595 10.7662 4.3967C10.2664 4.37676 9.76726 4.35614 9.26745 4.34995C8.76763 4.34239 8.26713 4.34307 7.76732 4.33689C6.83507 4.32245 5.90282 4.28876 4.97195 4.24957C4.96576 4.24957 4.95957 4.24889 4.95338 4.24889C4.71276 4.24889 4.51957 4.45239 4.48726 4.6827C4.3422 4.77551 4.23907 4.92951 4.23976 5.11101C4.24113 5.41351 4.24663 5.71807 4.28513 6.0192C4.26451 6.01507 4.24251 6.01576 4.22051 6.01301C4.06101 5.98826 3.90288 5.96145 3.74957 5.91057C3.70007 5.88514 3.65332 5.85695 3.60657 5.82532C3.58182 5.80332 3.55913 5.78064 3.53713 5.75589C3.50001 5.69607 3.46907 5.63489 3.4402 5.57164C3.40582 5.48089 3.37901 5.39014 3.35907 5.29526C3.35288 5.20245 3.35632 5.1117 3.36526 5.01889ZM16.8162 17.8545C16.282 17.8676 15.7471 17.8662 15.2129 17.8779C14.0703 17.8999 12.9284 17.9391 11.7844 17.9473C11.2543 17.9501 10.7229 17.9618 10.1928 17.9576C9.62907 17.9549 9.06601 17.9473 8.50363 17.9459C7.9722 17.9446 7.44076 17.9514 6.90932 17.9535C6.33732 17.9549 5.76188 17.9576 5.19263 17.9013C5.14726 17.8964 5.10188 17.8923 5.05651 17.8875C4.74645 17.8435 4.43432 17.7885 4.14145 17.6799C4.02457 17.6221 3.91182 17.5582 3.80457 17.4846C3.73032 17.4193 3.66501 17.3485 3.60245 17.2729C3.54745 17.2 3.49382 17.1251 3.44363 17.0474C3.38932 16.9608 3.3467 16.8652 3.30545 16.771C3.25801 16.6541 3.21263 16.5359 3.16795 16.4169C3.14113 16.3461 3.10813 16.2836 3.0662 16.2279C3.05932 15.3424 3.05932 14.4576 3.04763 13.5734C3.04007 13.0826 3.03045 12.5903 3.02426 12.0995C3.0167 11.5955 3.02288 11.0902 3.02151 10.5863C3.02151 9.86507 3.02013 9.14389 3.0387 8.42201C3.05245 7.86101 3.06963 7.3007 3.08476 6.7397C3.11776 6.76032 3.15007 6.78301 3.18307 6.80157C3.45738 6.95282 3.76401 6.99064 4.06926 7.02776C4.32501 7.05939 4.58213 7.07314 4.84063 7.08276C5.35351 7.10132 5.86845 7.09445 6.3827 7.09445C6.92445 7.09445 7.46482 7.08826 8.00657 7.08551C8.53938 7.08139 9.06945 7.10614 9.60157 7.12332C10.1144 7.13914 10.628 7.13914 11.1423 7.13914C11.6751 7.13776 12.2086 7.13364 12.7414 7.13501C13.2639 7.13639 13.7857 7.16732 14.3068 7.19895C15.2858 7.2567 16.2689 7.26014 17.2493 7.27182C17.481 7.27457 17.7161 7.27182 17.9506 7.2622C17.9361 8.24326 17.9492 9.22501 17.9533 10.2061C17.6323 10.1909 17.3112 10.1683 16.9894 10.1648C16.7426 10.1621 16.4958 10.1545 16.2504 10.1504C16.2256 10.1497 16.2016 10.1497 16.1768 10.1497C15.9032 10.1497 15.633 10.1758 15.3614 10.2116C15.0665 10.2521 14.7661 10.3724 14.5131 10.5278C14.324 10.644 14.1906 10.7994 14.0573 10.9733C13.9734 11.0826 13.9239 11.2373 13.8771 11.3624C13.8263 11.4972 13.7988 11.6416 13.7713 11.7832C13.7004 12.1462 13.6668 12.514 13.7424 12.8798C13.7609 12.9712 13.7974 13.0599 13.8311 13.1472C13.9149 13.3651 14.0284 13.5453 14.1851 13.7192C14.3089 13.8574 14.4753 13.9646 14.6265 14.0705C14.7241 14.1386 14.8314 14.1943 14.94 14.2444C15.094 14.3139 15.2535 14.3868 15.4192 14.4273C15.7128 14.5002 16.0194 14.5243 16.3212 14.5408C16.6594 14.5593 16.9998 14.5566 17.3408 14.5538C17.4844 14.5524 17.6295 14.5511 17.7739 14.5511C17.8344 14.5511 17.8942 14.5518 17.9547 14.5524C17.9471 15.6469 17.9822 16.7408 17.9911 17.8346C17.5999 17.8387 17.2081 17.8456 16.8162 17.8545ZM16.5907 12.2823C16.5907 12.5786 16.3439 12.8261 16.0469 12.8261C15.7506 12.8261 15.5031 12.5793 15.5031 12.2823C15.5031 11.986 15.7499 11.7385 16.0469 11.7385C16.3432 11.7385 16.5907 11.986 16.5907 12.2823Z" fill="#4F2396"/>
</svg>
