<svg width="10" height="9" viewBox="0 0 10 9" fill="none" xmlns="http://www.w3.org/2000/svg">
<path d="M6.58818 5.91518L6.37941 6.12271C6.37941 6.12271 5.88321 6.61611 4.52884 5.26938C3.17447 3.92271 3.67066 3.42935 3.67066 3.42935L3.80211 3.29863C4.12596 2.97664 4.15649 2.45967 3.87393 2.08226L3.29599 1.31025C2.9463 0.843132 2.27057 0.781427 1.86975 1.17997L1.15035 1.89528C0.951607 2.0929 0.818424 2.34906 0.834576 2.63324C0.875894 3.36025 1.20483 4.92449 3.04029 6.74953C4.98671 8.68488 6.81303 8.76179 7.55989 8.69217C7.79611 8.67017 8.00154 8.54986 8.16709 8.38523L8.8182 7.73788C9.25769 7.30086 9.13376 6.55166 8.57143 6.246L7.69578 5.76998C7.32655 5.56927 6.87674 5.62821 6.58818 5.91518Z" fill="#005DBA"/>
</svg>
