<svg width="30" height="30" viewBox="0 0 30 30" fill="none" xmlns="http://www.w3.org/2000/svg">
<path d="M23.64 18.6302L22.56 18.1202C22.41 18.0302 22.2 18.0302 22.05 18.1202L15.6 21.1802C15.24 21.3602 14.79 21.3602 14.43 21.1802L7.95 18.1202C7.8 18.0302 7.59 18.0302 7.44 18.1202L6.36 18.6302C5.88 18.8702 5.88 19.5002 6.36 19.7402L14.4 23.5502C14.76 23.7302 15.21 23.7302 15.57 23.5502L23.61 19.7402C24.12 19.5002 24.12 18.8402 23.64 18.6302Z" fill="#4F2396"/>
<path d="M23.64 14.43L22.53 13.92C22.38 13.83 22.17 13.83 22.02 13.92L15.6 16.98C15.24 17.16 14.79 17.16 14.43 16.98L7.98 13.92C7.83 13.83 7.62 13.83 7.47 13.92L6.36 14.43C5.88 14.67 5.88 15.3 6.36 15.54L14.4 19.38C14.76 19.56 15.21 19.56 15.57 19.38L23.61 15.57C24.12 15.33 24.12 14.67 23.64 14.43Z" fill="#4F2396"/>
<path d="M6.36 11.3402L14.4 15.1502C14.76 15.3302 15.21 15.3302 15.57 15.1502L23.61 11.3402C24.09 11.1002 24.09 10.4702 23.61 10.2302L15.57 6.42016C15.21 6.24016 14.76 6.24016 14.4 6.42016L6.36 10.2602C5.88 10.4702 5.88 11.1302 6.36 11.3402Z" fill="#4F2396"/>
</svg>
