<svg width="21" height="21" viewBox="0 0 21 21" fill="none" xmlns="http://www.w3.org/2000/svg">
<path d="M9.64089 18.2347C4.90431 18.2347 1.04797 14.3783 1.04797 9.64174C1.04797 4.90516 4.90431 1.04883 9.64089 1.04883C14.3775 1.04883 18.2338 4.90516 18.2338 9.64174C18.2338 14.3783 14.3775 18.2347 9.64089 18.2347ZM9.64089 2.30633C5.59174 2.30633 2.30547 5.60098 2.30547 9.64174C2.30547 13.6825 5.59174 16.9772 9.64089 16.9772C13.69 16.9772 16.9763 13.6825 16.9763 9.64174C16.9763 5.60098 13.69 2.30633 9.64089 2.30633Z" fill="#A9A9A9"/>
<path d="M18.4433 19.0727C18.2841 19.0727 18.1248 19.014 17.999 18.8883L16.3224 17.2116C16.0792 16.9685 16.0792 16.5661 16.3224 16.323C16.5655 16.0798 16.9679 16.0798 17.211 16.323L18.8877 17.9996C19.1308 18.2427 19.1308 18.6451 18.8877 18.8883C18.7619 19.014 18.6026 19.0727 18.4433 19.0727Z" fill="#A9A9A9"/>
</svg>
