<svg width="22" height="22" viewBox="0 0 22 22" fill="none" xmlns="http://www.w3.org/2000/svg">
<path d="M18.8134 6.71704L18.0873 6.90463L18.8134 6.71704ZM15.3136 3.42299L15.1724 4.15956L15.3136 3.42299ZM13.249 12.1413L13.4606 11.4217L13.249 12.1413ZM12.1422 13.248L12.8618 13.0364L12.1422 13.248ZM6.718 18.8125L6.53041 19.5386L6.718 18.8125ZM3.42394 15.3126L2.68736 15.4539L3.42394 15.3126ZM1.66932 6.16358L2.40589 6.02232L1.66932 6.16358ZM6.16457 1.66834L6.30583 0.931768L6.16457 1.66834ZM17.3964 16.3348C17.6893 16.6277 17.6893 17.1026 17.3964 17.3955C17.1035 17.6884 16.6286 17.6884 16.3357 17.3955L17.3964 16.3348ZM14.9215 15.9812C14.6286 15.6884 14.6286 15.2135 14.9215 14.9206C15.2144 14.6277 15.6893 14.6277 15.9822 14.9206L14.9215 15.9812ZM16.6893 19.8703C16.9822 20.1632 16.9822 20.6381 16.6893 20.931C16.3964 21.2239 15.9215 21.2239 15.6286 20.931L16.6893 19.8703ZM14.2144 19.5168C13.9215 19.2239 13.9215 18.749 14.2144 18.4561C14.5073 18.1632 14.9822 18.1632 15.2751 18.4561L14.2144 19.5168ZM20.9319 15.6277C21.2248 15.9206 21.2248 16.3955 20.9319 16.6884C20.639 16.9812 20.1642 16.9812 19.8713 16.6884L20.9319 15.6277ZM18.4571 15.2741C18.1642 14.9812 18.1642 14.5064 18.4571 14.2135C18.75 13.9206 19.2248 13.9206 19.5177 14.2135L18.4571 15.2741ZM2.40589 6.02232L4.16052 15.1714L2.68736 15.4539L0.932741 6.30484L2.40589 6.02232ZM15.1724 4.15956L6.0233 2.40492L6.30583 0.931768L15.4549 2.68641L15.1724 4.15956ZM18.0873 6.90463C17.7258 5.5052 16.5872 4.43092 15.1724 4.15956L15.4549 2.68641C17.4437 3.06784 19.0343 4.57329 19.5396 6.52946L18.0873 6.90463ZM13.4606 11.4217C16.213 12.2311 18.8098 9.70174 18.0873 6.90463L19.5396 6.52946C20.5485 10.435 16.9265 14.0045 13.0374 12.8608L13.4606 11.4217ZM11.4227 13.4596C11.0562 12.2132 12.2142 11.0552 13.4606 11.4217L13.0374 12.8608C12.93 12.8292 12.8302 12.929 12.8618 13.0364L11.4227 13.4596ZM6.90559 18.0863C9.70271 18.8089 12.2321 16.212 11.4227 13.4596L12.8618 13.0364C14.0054 16.9255 10.436 20.5476 6.53041 19.5386L6.90559 18.0863ZM4.16052 15.1714C4.43187 16.5863 5.50615 17.7248 6.90559 18.0863L6.53041 19.5386C4.57423 19.0333 3.06879 17.4428 2.68736 15.4539L4.16052 15.1714ZM0.932741 6.30484C0.321609 3.11825 3.11924 0.32063 6.30583 0.931768L6.0233 2.40492C3.87794 1.99347 1.99445 3.87696 2.40589 6.02232L0.932741 6.30484ZM16.3357 17.3955L14.9215 15.9812L15.9822 14.9206L17.3964 16.3348L16.3357 17.3955ZM15.6286 20.931L14.2144 19.5168L15.2751 18.4561L16.6893 19.8703L15.6286 20.931ZM19.8713 16.6884L18.4571 15.2741L19.5177 14.2135L20.9319 15.6277L19.8713 16.6884Z" fill="white"/>
</svg>
