<svg width="7" height="7" viewBox="0 0 7 7" fill="none" xmlns="http://www.w3.org/2000/svg">
<path d="M3.02447 0.963526C3.17415 0.502871 3.82585 0.50287 3.97553 0.963526L4.39806 2.26393C4.46499 2.46994 4.65697 2.60942 4.87358 2.60942H6.24091C6.72527 2.60942 6.92666 3.22923 6.5348 3.51393L5.42861 4.31763C5.25337 4.44495 5.18004 4.67063 5.24698 4.87664L5.66951 6.17705C5.81918 6.63771 5.29194 7.02077 4.90008 6.73607L3.79389 5.93237C3.61865 5.80505 3.38135 5.80505 3.20611 5.93237L2.09992 6.73607C1.70806 7.02077 1.18082 6.63771 1.33049 6.17705L1.75302 4.87664C1.81996 4.67063 1.74663 4.44495 1.57139 4.31763L0.465196 3.51393C0.0733387 3.22923 0.274726 2.60942 0.759088 2.60942H2.12642C2.34303 2.60942 2.53501 2.46994 2.60194 2.26393L3.02447 0.963526Z" fill="url(#paint0_linear_455_90)"/>
<defs>
<linearGradient id="paint0_linear_455_90" x1="3.5" y1="-0.5" x2="3.5" y2="8.5" gradientUnits="userSpaceOnUse">
<stop stop-color="#F7BF36"/>
<stop offset="1" stop-color="#E4A200"/>
</linearGradient>
</defs>
</svg>
