<svg width="22" height="22" viewBox="0 0 22 22" fill="none" xmlns="http://www.w3.org/2000/svg">
<g clip-path="url(#clip0_159_4654)">
<path d="M6.41671 10.0837C7.42923 10.0837 8.25004 9.26288 8.25004 8.25033C8.25004 7.2378 7.42923 6.41699 6.41671 6.41699C5.40418 6.41699 4.58337 7.2378 4.58337 8.25033C4.58337 9.26288 5.40418 10.0837 6.41671 10.0837Z" stroke="white" stroke-width="2" stroke-linecap="round" stroke-linejoin="round"/>
<path d="M5.09717 19.2497C10.203 10.1747 14.4471 8.57965 19.2505 14.4738" stroke="white" stroke-width="2" stroke-linecap="round" stroke-linejoin="round"/>
<path d="M10.5416 3H4.58329C3.61083 3 2.6782 3.38625 1.99057 4.07388C1.30293 4.76151 0.916626 5.6942 0.916626 6.66667V15.8333C0.916626 16.8058 1.30293 17.7384 1.99057 18.426C2.6782 19.1136 3.61083 19.5 4.58329 19.5H15.5833C16.5558 19.5 17.4884 19.1136 18.176 18.426C18.8637 17.7384 19.25 16.8058 19.25 15.8333V10.3333" stroke="white" stroke-width="2" stroke-linecap="round" stroke-linejoin="round"/>
<path d="M18.8833 0.917021C18.3407 0.918598 17.8179 1.116 17.4167 1.47086C17.102 1.19294 16.7108 1.00993 16.2909 0.944154C15.871 0.87838 15.4403 0.932668 15.0517 1.10043C14.6629 1.26818 14.3329 1.54214 14.1018 1.8889C13.8706 2.23566 13.7485 2.64023 13.75 3.05327C13.75 5.60488 17.4167 7.33366 17.4167 7.33366C17.4167 7.33366 21.0833 5.60488 21.0833 3.05327C21.0833 2.4867 20.8516 1.94335 20.439 1.54272C20.0264 1.1421 19.4668 0.917021 18.8833 0.917021Z" stroke="white" stroke-width="2" stroke-linecap="round" stroke-linejoin="round"/>
</g>
<defs>
<clipPath id="clip0_159_4654">
<rect width="22" height="22" fill="white"/>
</clipPath>
</defs>
</svg>
