<svg width="21" height="21" viewBox="0 0 21 21" fill="none" xmlns="http://www.w3.org/2000/svg">
<path d="M10.767 0.565629C9.2024 0.55425 7.60915 1.1594 6.57777 2.35964C5.66291 3.32811 5.3175 4.70085 5.36354 6.00441C5.35962 6.67391 5.36773 7.34328 5.37008 8.01264C4.72909 7.85348 4.07882 7.40788 3.40003 7.62852C2.82169 7.80024 2.58039 8.55554 2.92972 9.03984C3.30587 9.53173 3.89049 9.8124 4.37884 10.179C4.6191 10.3752 4.94293 10.5153 5.12172 10.7674C5.12158 11.3716 4.80456 11.931 4.50414 12.4397C3.77212 13.5908 2.62839 14.4709 1.40383 15.0789C1.09125 15.2143 0.803519 15.6209 1.0804 15.9289C1.5855 16.4026 2.30025 16.5538 2.93692 16.7772C3.20464 16.8609 3.60105 16.9525 3.57594 17.3113C3.61976 17.6936 3.86433 18.1047 4.29423 18.1063C5.32391 18.2253 6.42462 18.1745 7.34745 18.7263C8.2521 19.2503 9.18331 19.8345 10.2581 19.8982C11.329 19.9985 12.4322 19.782 13.3502 19.2109C14.0342 18.8337 14.701 18.3638 15.5024 18.2874C16.1766 18.1297 16.9021 18.2677 17.5538 18.0164C17.9714 17.8376 17.915 17.3306 18.0906 16.9952C18.4217 16.7667 18.8452 16.7405 19.214 16.5895C19.6962 16.3973 20.3041 16.2496 20.5569 15.7508C20.7071 15.3535 20.2546 15.1364 19.9745 14.9818C18.4862 14.2135 17.1455 13.0303 16.5583 11.4255C16.4934 11.1723 16.2602 10.7933 16.5692 10.6075C17.217 10.0613 18.0619 9.74753 18.5983 9.07529C19.0041 8.56731 18.7213 7.69549 18.0567 7.59452C17.4122 7.4925 16.8109 7.8421 16.2058 8.00349C16.1529 6.88787 16.2714 5.74977 16.1043 4.63624C15.7866 2.83034 14.3368 1.34604 12.5975 0.827203C12.0062 0.64397 11.3856 0.56079 10.767 0.565629Z" stroke="white" stroke-width="0.8" stroke-linejoin="round"/>
</svg>
