<svg width="20" height="20" viewBox="0 0 20 20" fill="none" xmlns="http://www.w3.org/2000/svg">
<path d="M15 5.9665C14.95 5.95817 14.8917 5.95817 14.8417 5.9665C13.6917 5.92484 12.775 4.98317 12.775 3.8165C12.775 2.62484 13.7334 1.6665 14.925 1.6665C16.1167 1.6665 17.075 2.63317 17.075 3.8165C17.0667 4.98317 16.15 5.92484 15 5.9665Z" stroke="#F69554" stroke-linecap="round" stroke-linejoin="round"/>
<path d="M14.1416 12.0333C15.2832 12.2249 16.5416 12.0249 17.4249 11.4333C18.5999 10.6499 18.5999 9.36661 17.4249 8.58328C16.5332 7.99164 15.2582 7.79163 14.1166 7.99163" stroke="#F69554" stroke-linecap="round" stroke-linejoin="round"/>
<path d="M4.97502 5.9665C5.02502 5.95817 5.08336 5.95817 5.13336 5.9665C6.28336 5.92484 7.20002 4.98317 7.20002 3.8165C7.20002 2.62484 6.24169 1.6665 5.05002 1.6665C3.85836 1.6665 2.90002 2.63317 2.90002 3.8165C2.90836 4.98317 3.82502 5.92484 4.97502 5.9665Z" stroke="#F69554" stroke-linecap="round" stroke-linejoin="round"/>
<path d="M5.83328 12.0333C4.69162 12.2249 3.43328 12.0249 2.54995 11.4333C1.37495 10.6499 1.37495 9.36661 2.54995 8.58328C3.44162 7.99164 4.71662 7.79163 5.85828 7.99163" stroke="#F69554" stroke-linecap="round" stroke-linejoin="round"/>
<path d="M10.0001 12.1916C9.95006 12.1833 9.89172 12.1833 9.84172 12.1916C8.69172 12.15 7.77502 11.2083 7.77502 10.0416C7.77502 8.84996 8.73339 7.8916 9.92506 7.8916C11.1167 7.8916 12.0751 8.85829 12.0751 10.0416C12.0667 11.2083 11.1501 12.1583 10.0001 12.1916Z" stroke="#F69554" stroke-linecap="round" stroke-linejoin="round"/>
<path d="M7.57498 14.8168C6.39998 15.6001 6.39998 16.8835 7.57498 17.6668C8.90833 18.5585 11.0917 18.5585 12.425 17.6668C13.6 16.8835 13.6 15.6001 12.425 14.8168C11.1 13.9335 8.90833 13.9335 7.57498 14.8168Z" stroke="#F69554" stroke-linecap="round" stroke-linejoin="round"/>
</svg>
