<svg width="22" height="22" viewBox="0 0 22 22" fill="none" xmlns="http://www.w3.org/2000/svg">
<path d="M16.5 6.5635C16.445 6.55433 16.3808 6.55433 16.3258 6.5635C15.0608 6.51766 14.0525 5.48183 14.0525 4.1985C14.0525 2.88766 15.1067 1.8335 16.4175 1.8335C17.7283 1.8335 18.7825 2.89683 18.7825 4.1985C18.7733 5.48183 17.765 6.51766 16.5 6.5635Z" stroke="#4F2396" stroke-linecap="round" stroke-linejoin="round"/>
<path d="M15.5557 13.2365C16.8115 13.4473 18.1957 13.2273 19.1674 12.5765C20.4599 11.7148 20.4599 10.3031 19.1674 9.44146C18.1865 8.79066 16.784 8.57065 15.5282 8.79065" stroke="#4F2396" stroke-linecap="round" stroke-linejoin="round"/>
<path d="M5.47244 6.5635C5.52744 6.55433 5.59161 6.55433 5.64661 6.5635C6.91161 6.51766 7.91994 5.48183 7.91994 4.1985C7.91994 2.88766 6.86577 1.8335 5.55494 1.8335C4.24411 1.8335 3.18994 2.89683 3.18994 4.1985C3.19911 5.48183 4.20744 6.51766 5.47244 6.5635Z" stroke="#4F2396" stroke-linecap="round" stroke-linejoin="round"/>
<path d="M6.41661 13.2365C5.16078 13.4473 3.77661 13.2273 2.80495 12.5765C1.51245 11.7148 1.51245 10.3031 2.80495 9.44146C3.78578 8.79066 5.18828 8.57065 6.44411 8.79065" stroke="#4F2396" stroke-linecap="round" stroke-linejoin="round"/>
<path d="M11 13.4107C10.945 13.4015 10.8809 13.4015 10.8259 13.4107C9.56086 13.3649 8.55249 12.329 8.55249 11.0457C8.55249 9.73486 9.60669 8.68066 10.9175 8.68066C12.2284 8.68066 13.2825 9.74403 13.2825 11.0457C13.2734 12.329 12.265 13.374 11 13.4107Z" stroke="#4F2396" stroke-linecap="round" stroke-linejoin="round"/>
<path d="M8.33241 16.2986C7.03991 17.1602 7.03991 18.5719 8.33241 19.4336C9.79911 20.4144 12.2008 20.4144 13.6674 19.4336C14.9599 18.5719 14.9599 17.1602 13.6674 16.2986C12.2099 15.3269 9.79911 15.3269 8.33241 16.2986Z" stroke="#4F2396" stroke-linecap="round" stroke-linejoin="round"/>
</svg>
