<svg width="23" height="22" viewBox="0 0 23 22" fill="none" xmlns="http://www.w3.org/2000/svg">
<path d="M17.0311 6.5635C16.9761 6.55433 16.912 6.55433 16.857 6.5635C15.592 6.51766 14.5836 5.48183 14.5836 4.1985C14.5836 2.88766 15.6378 1.8335 16.9486 1.8335C18.2595 1.8335 19.3136 2.89683 19.3136 4.1985C19.3045 5.48183 18.2961 6.51766 17.0311 6.5635Z" stroke="white" stroke-linecap="round" stroke-linejoin="round"/>
<path d="M16.0868 13.2365C17.3427 13.4473 18.7268 13.2273 19.6985 12.5765C20.991 11.7148 20.991 10.3031 19.6985 9.44146C18.7177 8.79066 17.3152 8.57065 16.0593 8.79065" stroke="white" stroke-linecap="round" stroke-linejoin="round"/>
<path d="M6.00357 6.5635C6.05857 6.55433 6.12274 6.55433 6.17774 6.5635C7.44274 6.51766 8.45107 5.48183 8.45107 4.1985C8.45107 2.88766 7.3969 1.8335 6.08607 1.8335C4.77524 1.8335 3.72107 2.89683 3.72107 4.1985C3.73024 5.48183 4.73857 6.51766 6.00357 6.5635Z" stroke="white" stroke-linecap="round" stroke-linejoin="round"/>
<path d="M6.94774 13.2365C5.69191 13.4473 4.30774 13.2273 3.33607 12.5765C2.04357 11.7148 2.04357 10.3031 3.33607 9.44146C4.31691 8.79066 5.71941 8.57065 6.97524 8.79065" stroke="white" stroke-linecap="round" stroke-linejoin="round"/>
<path d="M11.5312 13.4107C11.4762 13.4015 11.412 13.4015 11.357 13.4107C10.092 13.3649 9.08362 12.329 9.08362 11.0457C9.08362 9.73486 10.1378 8.68066 11.4487 8.68066C12.7595 8.68066 13.8137 9.74403 13.8137 11.0457C13.8045 12.329 12.7962 13.374 11.5312 13.4107Z" stroke="white" stroke-linecap="round" stroke-linejoin="round"/>
<path d="M8.86354 16.2986C7.57104 17.1602 7.57104 18.5719 8.86354 19.4336C10.3302 20.4144 12.7319 20.4144 14.1986 19.4336C15.4911 18.5719 15.4911 17.1602 14.1986 16.2986C12.7411 15.3269 10.3302 15.3269 8.86354 16.2986Z" stroke="white" stroke-linecap="round" stroke-linejoin="round"/>
</svg>
